<?xml version="1.0" encoding="UTF-8" standalone="no"?>
<svg
   width="320"
   height="320"
   viewBox="0 0 320 320"
   fill="none"
   version="1.1"
   id="svg7"
   sodipodi:docname="ABGI.svg"
   inkscape:version="1.4.2 (f4327f4, 2025-05-13)"
   xmlns:inkscape="http://www.inkscape.org/namespaces/inkscape"
   xmlns:sodipodi="http://sodipodi.sourceforge.net/DTD/sodipodi-0.dtd"
   xmlns="http://www.w3.org/2000/svg"
   xmlns:svg="http://www.w3.org/2000/svg">
  <defs
     id="defs7" />
  <sodipodi:namedview
     id="namedview7"
     pagecolor="#505050"
     bordercolor="#eeeeee"
     borderopacity="1"
     inkscape:showpageshadow="0"
     inkscape:pageopacity="0"
     inkscape:pagecheckerboard="0"
     inkscape:deskcolor="#505050"
     inkscape:zoom="1.7991714"
     inkscape:cx="93.932129"
     inkscape:cy="173.13526"
     inkscape:window-width="1920"
     inkscape:window-height="1017"
     inkscape:window-x="-8"
     inkscape:window-y="-8"
     inkscape:window-maximized="1"
     inkscape:current-layer="g7" />
  <g
     id="g7"
     transform="matrix(0.90095325,0,0,0.90095325,3.8965847,113.14466)">
    <path
       d="M 249.828,50.6182 C 249.828,33.9698 262.45,18 282.12,18 c 14.424,0 24.437,6.7608 28.154,10.9724 l -9.809,8.1643 c -1.45,-1.6433 -7.971,-6.5912 -18.345,-6.5912 -11.331,0 -19.375,9.1211 -19.375,20.0727 0,8.193 2.462,14.1629 5.898,17.9875 3.396,3.7796 8.067,5.8488 13.477,5.8488 6.463,0 10.971,-1.1195 13.873,-2.3204 1.343,-0.556 2.285,-1.1102 2.918,-1.5437 V 53.1273 h 12.917 V 75.099 l -1.085,1.5804 C 307.384,81.5739 297.81,87 282.12,87 273.063,87 264.817,83.4238 258.913,76.8534 253.049,70.328 249.828,61.2432 249.828,50.6182 Z"
       fill="#ffffff"
       id="path1"
       style="fill:#ababab;fill-opacity:1" />
    <path
       d="M 16.0339,102.009 V 80.9357 c 0,-0.67 0.3354,-1.2955 0.8935,-1.6661 L 51.7277,56.1581 c 1.7601,-1.1689 1.7925,-3.7427 0.0623,-4.9556 L 16.8859,26.7342 c -0.534,-0.3743 -0.852,-0.9855 -0.852,-1.6377 V 4.0574 c 0,-1.65857 1.9026,-2.59641 3.2181,-1.58628 L 79.7174,48.9017 c 3.1537,2.4217 3.1223,7.1855 -0.0631,9.5654 L 19.231,103.611 c -1.319,0.986 -3.1971,0.045 -3.1971,-1.602 z"
       fill="#d9d9d9"
       id="path2"
       sodipodi:nodetypes="ssccccssccscs"
       style="fill:#ababab;fill-opacity:1" />
    <path
       d="m 0,35.8229 v 34.5028 c 0,1.5958 1.77712,2.5489 3.10646,1.666 L 28.1871,55.3352 c 1.1684,-0.7759 1.1959,-2.4824 0.053,-3.2956 L 3.15953,34.1934 C 1.83543,33.2512 0,34.1979 0,35.8229 Z"
       fill="#d9d9d9"
       id="path3"
       sodipodi:nodetypes="ssccccs"
       style="fill:#ababab;fill-opacity:1" />
    <path
       d="m 138.812,84.9829 -1.493,-2.6447 c -0.657,-1.1659 0.002,-2.6331 1.255,-3.1042 8.261,-3.1051 9.605,-10.5843 9.159,-14.234 l 8.86,18.1216 C 157.242,84.4503 156.275,86 154.796,86 h -14.242 c -0.722,0 -1.387,-0.3887 -1.742,-1.0171 z"
       fill="#ffffff"
       id="path4"
       style="fill:#ababab;fill-opacity:1" />
    <path
       d="m 125.759,18.4346 c 0.778,10e-5 1.485,0.4516 1.813,1.1572 l 15.81,34.0244 c 0.073,0.1568 0.125,0.3177 0.153,0.4883 1.267,7.7981 -1.652,22.9053 -23.358,22.9053 h -6.996 c -0.756,0 -1.447,0.4259 -1.786,1.1006 l -4.378,8.6972 c -0.34,0.6746 -1.031,1.1005 -1.787,1.1006 H 88.9395 c -1.4399,-10e-5 -2.4076,-1.4761 -1.834,-2.7969 L 115.54,19.6377 c 0.317,-0.7306 1.038,-1.2031 1.835,-1.2031 z m -4.303,25.1484 -7.237,18.8164 -0.261,0.6787 h 14.431 l -0.2,-0.6465 -5.789,-18.8164 -0.425,-1.3818 z"
       fill="#ffffff"
       id="path5"
       style="fill:#ababab;fill-opacity:1" />
    <path
       d="m 217.852,21.0088 c 9.927,2e-4 17.976,8.0487 17.976,17.9766 0,5.8844 -2.828,11.1083 -7.198,14.3876 4.37,3.2794 7.198,8.5033 7.198,14.3877 0,9.9282 -8.048,17.9764 -17.976,17.9766 H 172.828 V 21.0088 Z M 189.946,75.251 h 20.522 c 4.55,0 8.239,-3.6888 8.239,-8.2393 0,-4.5503 -3.689,-8.2392 -8.239,-8.2392 h -20.522 z m 0,-28.7754 h 20.522 c 4.55,0 8.239,-3.6888 8.239,-8.2393 0,-4.5501 -3.689,-8.2392 -8.239,-8.2392 h -20.522 z"
       fill="#ffffff"
       id="path6"
       sodipodi:nodetypes="cscscccccssscccssscc"
       style="fill:#ababab;fill-opacity:1" />
    <path
       d="M 345.448,29.0614 V 87.1842 H 331.609 V 29.0614 Z"
       fill="#ffffff"
       id="path7"
       style="fill:#ababab;fill-opacity:1" />
    <circle
       cx="337.89899"
       cy="11.071"
       r="11.071"
       fill="#ffffff"
       id="circle7"
       style="fill:#ababab;fill-opacity:1" />
  </g>
</svg>
