<?xml version="1.0" encoding="UTF-8" standalone="no"?>
<svg
   width="320"
   height="320"
   viewBox="0 0 320 320"
   fill="none"
   version="1.1"
   id="svg21"
   sodipodi:docname="CEBRAC.svg"
   inkscape:version="1.4.2 (f4327f4, 2025-05-13)"
   xmlns:inkscape="http://www.inkscape.org/namespaces/inkscape"
   xmlns:sodipodi="http://sodipodi.sourceforge.net/DTD/sodipodi-0.dtd"
   xmlns="http://www.w3.org/2000/svg"
   xmlns:svg="http://www.w3.org/2000/svg">
  <defs
     id="defs21" />
  <sodipodi:namedview
     id="namedview21"
     pagecolor="#505050"
     bordercolor="#eeeeee"
     borderopacity="1"
     inkscape:showpageshadow="0"
     inkscape:pageopacity="0"
     inkscape:pagecheckerboard="0"
     inkscape:deskcolor="#505050"
     inkscape:zoom="3.9466666"
     inkscape:cx="47.381758"
     inkscape:cy="171.91723"
     inkscape:window-width="1920"
     inkscape:window-height="1017"
     inkscape:window-x="-8"
     inkscape:window-y="-8"
     inkscape:window-maximized="1"
     inkscape:current-layer="g21" />
  <g
     id="g21"
     transform="matrix(0.71111111,0,0,0.71111111,2.5000002e-7,120.54698)">
    <path
       d="m 207.255,108.956 c -0.648,0.281 -1.214,0.477 -1.698,0.583 -0.48,0.103 -1.029,0.192 -1.64,0.261 -0.614,0.069 -1.218,0.103 -1.814,0.103 -2.597,0 -4.534,-0.734 -5.814,-2.202 -1.279,-1.468 -1.917,-3.337 -1.917,-5.607 0,-2.2843 0.638,-4.1573 1.914,-5.6183 1.272,-1.461 3.278,-2.192 6.008,-2.192 1.612,0 3.221,0.192 4.819,0.577 v 2.428 c -0.768,-0.271 -1.396,-0.47 -1.886,-0.597 -0.487,-0.123 -0.95,-0.216 -1.389,-0.278 -0.439,-0.061 -0.874,-0.093 -1.31,-0.093 -1.704,0 -2.939,0.549 -3.711,1.65 -0.768,1.097 -1.152,2.4593 -1.152,4.0813 0,1.701 0.435,3.08 1.309,4.133 0.871,1.053 2.172,1.578 3.897,1.578 1.437,0 2.898,-0.364 4.383,-1.091 v 2.284 z m 10.208,0.205 c -1.407,0.411 -2.737,0.618 -3.996,0.618 -1.19,0 -2.236,-0.223 -3.132,-0.669 -0.895,-0.442 -1.584,-1.138 -2.068,-2.085 -0.483,-0.947 -0.723,-1.979 -0.723,-3.087 0,-1.032 0.206,-1.986 0.614,-2.857 0.411,-0.874 1.005,-1.5643 1.786,-2.0683 0.785,-0.505 1.749,-0.758 2.895,-0.758 1.403,0 2.524,0.45 3.364,1.345 0.84,0.8993 1.259,2.5693 1.259,5.0143 h -6.791 c 0.066,0.741 0.233,1.327 0.504,1.756 0.268,0.425 0.631,0.765 1.09,1.016 0.46,0.25 1.074,0.377 1.845,0.377 0.991,0 2.109,-0.233 3.351,-0.7 v 2.098 z m -6.832,-6.235 h 3.91 c 0,-1.012 -0.168,-1.732 -0.501,-2.168 -0.336,-0.435 -0.765,-0.652 -1.296,-0.652 -0.572,0 -1.046,0.241 -1.416,0.717 -0.371,0.481 -0.604,1.18 -0.697,2.103 z m 8.493,6.606 V 98.5017 l 2.83704,-0.06334 0.0858,2.04358 c 0.535,-0.851304 1.19021,-1.346235 1.83821,-1.698235 0.648,-0.354 1.307,-0.529 1.975,-0.529 0.871,0 1.619,0.278 2.243,0.837 0.628,0.559 0.94,1.444305 0.94,2.647305 v 7.792 h -2.983 v -7.055 c 0,-0.601 -0.055,-1.008 -0.165,-1.225 -0.109,-0.212 -0.26,-0.377 -0.449,-0.487 -0.192,-0.109 -0.405,-0.164 -0.638,-0.164 -0.405,0 -0.83,0.133 -1.269,0.405 -0.439,0.27 -0.83335,0.89158 -1.34835,1.68058 l 0.0224,6.84542 c -0.38073,-0.0896 -3.0891,0 -3.0891,0 z m 17.767,-0.062 c -0.71,0.206 -1.272,0.309 -1.68,0.309 -0.974,0 -1.729,-0.137 -2.264,-0.412 -0.538,-0.274 -0.94,-0.648 -1.21,-1.121 -0.268,-0.47 -0.401,-1.166 -0.401,-2.085 v -5.806 H 230.1 v -1.8523 h 1.235 v -1.852 l 2.983,-0.342 v 2.194 h 2.366 v 1.8523 h -2.366 v 5.405 c 0,0.793 0.141,1.331 0.421,1.609 0.282,0.278 0.693,0.415 1.235,0.415 0.257,0 0.562,-0.034 0.915,-0.103 v 1.789 z m 1.195,0.062 V 98.5017 h 2.984 v 2.0783 c 0.357,-0.7093 0.841,-1.2723 1.458,-1.6943 0.618,-0.422 1.307,-0.631 2.065,-0.631 0.178,0 0.363,0.014 0.552,0.042 v 2.6753 c -0.415,-0.151 -0.809,-0.227 -1.176,-0.227 -0.59,0 -1.129,0.147 -1.612,0.446 -0.48,0.295 -0.909,0.744 -1.286,1.345 v 6.996 z m 12.639,0.247 c -1.194,0 -2.215,-0.233 -3.069,-0.696 -0.855,-0.467 -1.506,-1.153 -1.956,-2.055 -0.449,-0.902 -0.672,-1.907 -0.672,-3.011 0,-1.098 0.22,-2.096 0.661,-2.998 0.443,-0.898 1.094,-1.5853 1.948,-2.0573 0.858,-0.47 1.886,-0.707 3.086,-0.707 1.204,0 2.233,0.237 3.087,0.707 0.854,0.473 1.502,1.1593 1.947,2.0573 0.446,0.903 0.669,1.9 0.669,2.998 0,1.104 -0.223,2.109 -0.672,3.011 -0.45,0.902 -1.101,1.588 -1.955,2.055 -0.851,0.463 -1.876,0.696 -3.074,0.696 z m 0,-1.852 c 0.841,0 1.475,-0.37 1.897,-1.111 0.426,-0.741 0.638,-1.674 0.638,-2.799 0,-1.118 -0.212,-2.051 -0.638,-2.906 -0.421,-0.633 -1.056,-1.004 -1.897,-1.004 -0.836,0 -1.468,0.37 -1.889,1.004 -0.426,0.855 -0.638,1.788 -0.638,2.906 0,1.124 0.212,2.058 0.638,2.799 0.421,0.741 1.053,1.111 1.889,1.111 z"
       fill="#ffffff"
       id="path1"
       sodipodi:nodetypes="cccscscsccccscscsccccsccsccscccccsccccccscccccccscsccsccsccccccsccsccccccccccscsccccccccsccsccccsccsccsccsccsscscscscs"
       style="fill:#ababab;fill-opacity:1" />
    <path
       d="M 264.121,109.532 V 94.6537 h 5.041 c 1.214,0 2.116,0.1379 2.699,0.4079 0.586,0.271 1.043,0.6721 1.371,1.2081 0.333,0.532 0.497,1.097 0.497,1.695 0,0.751 -0.26,1.468 -0.778,2.1463 -0.518,0.679 -1.447,1.232 -2.788,1.653 1.063,0.264 1.879,0.587 2.442,0.978 0.566,0.387 0.994,0.85 1.286,1.385 0.291,0.535 0.435,1.111 0.435,1.729 0,0.668 -0.171,1.293 -0.515,1.872 -0.346,0.579 -0.816,1.025 -1.42,1.337 -0.6,0.312 -1.526,0.467 -2.774,0.467 z m 2.984,-8.684 h 0.665 c 0.94,0 1.646,-0.233 2.113,-0.699 0.467,-0.4673 0.699,-1.0363 0.699,-1.7053 0,-0.357 -0.068,-0.6651 -0.208,-0.9261 -0.138,-0.264 -0.382,-0.4669 -0.724,-0.6099 -0.346,-0.144 -1.009,-0.216 -1.989,-0.216 h -0.556 z m 0,6.564 h 0.596 c 1.084,0 1.818,-0.068 2.212,-0.209 0.391,-0.141 0.686,-0.367 0.885,-0.682 0.199,-0.312 0.298,-0.662 0.298,-1.043 0,-0.734 -0.326,-1.358 -0.978,-1.869 -0.651,-0.511 -1.478,-0.765 -2.479,-0.765 h -0.535 v 4.568 z m 8.551,2.12 V 98.5016 h 2.984 v 2.0784 c 0.357,-0.7093 0.841,-1.2723 1.458,-1.6943 0.618,-0.422 1.307,-0.6311 2.065,-0.6311 0.178,0 0.363,0.0141 0.552,0.0421 v 2.6753 c -0.415,-0.151 -0.809,-0.227 -1.176,-0.227 -0.59,0 -1.129,0.147 -1.612,0.446 -0.48,0.295 -0.909,0.744 -1.286,1.345 v 6.996 z m 13.326,-1.194 c -0.429,0.415 -0.799,0.713 -1.115,0.896 -0.315,0.182 -0.644,0.319 -0.987,0.408 -0.34,0.093 -0.703,0.137 -1.084,0.137 -0.984,0 -1.776,-0.306 -2.37,-0.919 -0.594,-0.61 -0.888,-1.361 -0.888,-2.253 0,-1.084 0.443,-1.989 1.331,-2.713 0.888,-0.727 2.325,-1.091 4.318,-1.091 h 0.792 v -1.001 c 0,-0.676 -0.188,-1.132 -0.562,-1.365 -0.374,-0.233 -0.851,-0.35 -1.427,-0.35 -1.138,0 -2.298,0.326 -3.485,0.981 v -2.0473 c 1.348,-0.511 2.689,-0.7651 4.023,-0.7651 0.816,0 1.546,0.1101 2.188,0.3331 0.645,0.219 1.159,0.5619 1.543,1.0249 0.388,0.4674 0.579,1.1594 0.579,2.0824 v 4.877 c 0,0.593 0.096,0.957 0.285,1.091 0.188,0.133 0.373,0.202 0.558,0.202 0.11,0 0.247,-0.014 0.412,-0.038 l 0.041,1.67 c -0.631,0.189 -1.19,0.282 -1.681,0.282 -0.548,0 -1.022,-0.093 -1.42,-0.278 -0.401,-0.185 -0.706,-0.573 -0.922,-1.163 h -0.129 z m -0.004,-1.591 v -2.236 h -0.703 c -0.967,0 -1.691,0.171 -2.164,0.518 -0.477,0.342 -0.713,0.771 -0.713,1.29 0,0.422 0.144,0.765 0.432,1.035 0.289,0.271 0.624,0.408 1.012,0.408 0.35,0 0.7,-0.086 1.059,-0.257 0.358,-0.168 0.717,-0.421 1.077,-0.758 z m 4.951,2.435 v -2.181 c 1.471,0.617 2.73,0.926 3.772,0.926 0.556,0 0.998,-0.117 1.327,-0.354 0.333,-0.233 0.497,-0.531 0.497,-0.892 0,-0.315 -0.123,-0.58 -0.37,-0.792 -0.25,-0.209 -0.628,-0.415 -1.135,-0.614 l -1.005,-0.402 c -1.039,-0.415 -1.808,-0.874 -2.301,-1.375 -0.497,-0.497 -0.744,-1.142 -0.744,-1.941 0,-0.956 0.374,-1.7454 1.121,-2.3704 0.748,-0.621 1.89,-0.9329 3.426,-0.9329 0.899,0 1.969,0.13 3.21,0.392 v 2.0983 c -1.194,-0.425 -2.182,-0.638 -2.967,-0.638 -0.614,0 -1.077,0.107 -1.385,0.316 -0.308,0.213 -0.463,0.483 -0.463,0.819 0,0.261 0.099,0.491 0.302,0.693 0.192,0.203 0.549,0.398 1.063,0.593 l 0.864,0.33 c 1.423,0.546 2.357,1.07 2.799,1.577 0.435,0.515 0.651,1.132 0.651,1.849 0,0.929 -0.401,1.745 -1.2,2.445 -0.799,0.7 -1.961,1.05 -3.488,1.05 -1.296,10e-4 -2.623,-0.198 -3.974,-0.596 z m 10.479,0.35 V 98.5016 h 2.984 v 11.0304 z m 0,-12.8823 v -2.4901 h 2.984 v 2.4901 z m 5.246,12.8823 V 93.6656 h 2.984 v 15.8664 z m 14.197,-0.371 c -1.407,0.411 -2.737,0.618 -3.996,0.618 -1.19,0 -2.236,-0.223 -3.132,-0.669 -0.895,-0.442 -1.585,-1.138 -2.068,-2.085 -0.483,-0.947 -0.723,-1.979 -0.723,-3.087 0,-1.032 0.206,-1.986 0.614,-2.857 0.411,-0.874 1.005,-1.5643 1.786,-2.0683 0.785,-0.505 1.749,-0.7581 2.895,-0.7581 1.403,0 2.524,0.45 3.364,1.345 0.841,0.8994 1.259,2.5694 1.259,5.0144 h -6.791 c 0.066,0.741 0.233,1.327 0.504,1.756 0.268,0.425 0.631,0.765 1.09,1.016 0.46,0.25 1.074,0.377 1.846,0.377 0.991,0 2.109,-0.233 3.351,-0.7 v 2.098 z m -6.832,-6.235 h 3.91 c 0,-1.012 -0.168,-1.732 -0.501,-2.168 -0.336,-0.435 -0.765,-0.652 -1.296,-0.652 -0.572,0 -1.046,0.241 -1.416,0.717 -0.371,0.481 -0.604,1.18 -0.697,2.103 z m 8.493,6.606 V 98.5016 h 2.984 v 11.0304 z m 0,-12.8823 v -2.4901 h 2.984 v 2.4901 z m 5.246,12.8823 V 98.5016 h 2.983 v 2.0784 c 0.357,-0.7093 0.841,-1.2723 1.458,-1.6943 0.618,-0.422 1.307,-0.6311 2.065,-0.6311 0.178,0 0.363,0.0141 0.552,0.0421 v 2.6753 c -0.415,-0.151 -0.809,-0.227 -1.176,-0.227 -0.59,0 -1.129,0.147 -1.612,0.446 -0.48,0.295 -0.908,0.744 -1.286,1.345 v 6.996 z m 12.639,0.247 c -1.194,0 -2.215,-0.233 -3.069,-0.696 -0.855,-0.467 -1.505,-1.153 -1.956,-2.055 -0.449,-0.902 -0.672,-1.907 -0.672,-3.011 0,-1.098 0.22,-2.096 0.661,-2.998 0.443,-0.898 1.095,-1.5854 1.948,-2.0574 0.857,-0.47 1.886,-0.707 3.086,-0.707 1.204,0 2.232,0.237 3.087,0.707 0.854,0.473 1.502,1.1594 1.948,2.0574 0.446,0.903 0.669,1.9 0.669,2.998 0,1.104 -0.223,2.109 -0.672,3.011 -0.45,0.902 -1.101,1.588 -1.955,2.055 -0.852,0.463 -1.878,0.696 -3.075,0.696 z m 0,-1.852 c 0.841,0 1.475,-0.37 1.897,-1.111 0.426,-0.741 0.638,-1.674 0.638,-2.799 0,-1.118 -0.212,-2.051 -0.638,-2.906 -0.422,-0.633 -1.056,-1.004 -1.897,-1.004 -0.836,0 -1.468,0.37 -1.889,1.004 -0.426,0.855 -0.638,1.788 -0.638,2.906 0,1.124 0.212,2.058 0.638,2.799 0.421,0.741 1.053,1.111 1.889,1.111 z"
       fill="#ffffff"
       id="path2"
       style="fill:#ababab;fill-opacity:1" />
    <path
       d="m 364.068,109.532 v -2.099 c -0.378,0.783 -0.861,1.369 -1.451,1.76 -0.594,0.391 -1.293,0.587 -2.106,0.587 -1.334,0 -2.37,-0.501 -3.101,-1.503 -0.734,-0.997 -1.101,-2.318 -1.101,-3.958 0,-1.735 0.408,-3.179 1.228,-4.3313 0.819,-1.156 1.962,-1.732 3.43,-1.732 0.394,0 0.757,0.042 1.09,0.127 0.329,0.082 0.645,0.213 0.95,0.388 0.302,0.175 0.659,0.459 1.06,0.854 v -5.957 h 2.984 v 15.8663 h -2.983 z m 0,-8.143 c -0.404,-0.466 -0.789,-0.782 -1.145,-0.949 -0.36,-0.168 -0.728,-0.251 -1.101,-0.251 -0.782,0 -1.368,0.384 -1.759,1.156 -0.388,0.772 -0.584,1.677 -0.584,2.717 0,1.025 0.182,1.845 0.545,2.455 0.36,0.611 0.885,0.916 1.574,0.916 0.435,0 0.868,-0.154 1.296,-0.466 0.429,-0.309 0.82,-0.717 1.173,-1.225 v -4.353 z m 14.31,7.772 c -1.406,0.411 -2.737,0.618 -3.996,0.618 -1.19,0 -2.236,-0.223 -3.132,-0.669 -0.895,-0.442 -1.585,-1.138 -2.068,-2.085 -0.483,-0.947 -0.723,-1.979 -0.723,-3.087 0,-1.032 0.206,-1.986 0.614,-2.857 0.411,-0.874 1.005,-1.5643 1.786,-2.0683 0.785,-0.505 1.749,-0.758 2.895,-0.758 1.403,0 2.524,0.45 3.364,1.345 0.84,0.8993 1.259,2.5693 1.259,5.0143 h -6.791 c 0.066,0.741 0.233,1.327 0.505,1.756 0.267,0.425 0.631,0.765 1.09,1.016 0.46,0.25 1.074,0.377 1.845,0.377 0.991,0 2.11,-0.233 3.351,-0.7 z m -6.832,-6.235 h 3.91 c 0,-1.012 -0.168,-1.732 -0.501,-2.168 -0.336,-0.435 -0.765,-0.652 -1.296,-0.652 -0.572,0 -1.046,0.241 -1.416,0.717 -0.371,0.481 -0.605,1.18 -0.697,2.103 z"
       fill="#ffffff"
       id="path3"
       style="fill:#ababab;fill-opacity:1" />
    <path
       d="m 398.504,108.956 c -0.648,0.281 -1.214,0.477 -1.697,0.583 -0.481,0.103 -1.029,0.192 -1.64,0.261 -0.614,0.069 -1.218,0.103 -1.814,0.103 -2.596,0 -4.534,-0.734 -5.814,-2.202 -1.279,-1.468 -1.917,-3.337 -1.917,-5.607 0,-2.2843 0.638,-4.1573 1.914,-5.6183 1.272,-1.461 3.278,-2.192 6.008,-2.192 1.612,0 3.221,0.192 4.819,0.577 v 2.428 c -0.768,-0.271 -1.395,-0.47 -1.886,-0.597 -0.487,-0.123 -0.95,-0.216 -1.389,-0.278 -0.439,-0.061 -0.874,-0.093 -1.31,-0.093 -1.704,0 -2.939,0.549 -3.711,1.65 -0.768,1.097 -1.152,2.4593 -1.152,4.0813 0,1.701 0.435,3.08 1.309,4.133 0.871,1.053 2.171,1.578 3.897,1.578 1.437,0 2.898,-0.364 4.383,-1.091 z m 8.068,0.576 v -2.089 c -0.528,0.847 -1.118,1.447 -1.766,1.801 -0.648,0.356 -1.31,0.535 -1.985,0.535 -0.871,0 -1.619,-0.282 -2.244,-0.841 -0.627,-0.558 -0.939,-1.44 -0.939,-2.644 v -7.7933 h 2.983 v 7.0553 c 0,0.601 0.055,1.008 0.165,1.225 0.109,0.212 0.26,0.377 0.449,0.487 0.192,0.11 0.405,0.164 0.638,0.164 0.405,0 0.83,-0.137 1.269,-0.407 0.439,-0.271 0.916,-0.799 1.43,-1.588 v -6.9353 h 2.984 v 11.0303 z m 5.255,0 V 98.5017 h 2.983 v 2.0783 c 0.357,-0.7093 0.841,-1.2723 1.458,-1.6943 0.618,-0.422 1.307,-0.631 2.065,-0.631 0.178,0 0.363,0.014 0.552,0.042 v 2.6753 c -0.415,-0.151 -0.81,-0.227 -1.176,-0.227 -0.59,0 -1.129,0.147 -1.612,0.446 -0.48,0.295 -0.908,0.744 -1.286,1.345 v 6.996 z m 7.623,-0.35 v -2.181 c 1.471,0.617 2.73,0.926 3.773,0.926 0.556,0 0.998,-0.117 1.327,-0.354 0.332,-0.233 0.497,-0.531 0.497,-0.892 0,-0.315 -0.123,-0.58 -0.37,-0.792 -0.25,-0.209 -0.628,-0.415 -1.135,-0.614 l -1.005,-0.402 c -1.039,-0.415 -1.807,-0.874 -2.301,-1.375 -0.497,-0.497 -0.744,-1.142 -0.744,-1.941 0,-0.956 0.374,-1.7453 1.121,-2.3703 0.748,-0.621 1.89,-0.933 3.426,-0.933 0.899,0 1.969,0.13 3.21,0.392 v 2.0983 c -1.194,-0.425 -2.182,-0.638 -2.967,-0.638 -0.614,0 -1.077,0.107 -1.385,0.316 -0.308,0.213 -0.463,0.483 -0.463,0.819 0,0.261 0.099,0.491 0.302,0.693 0.192,0.203 0.549,0.398 1.063,0.593 l 0.864,0.33 c 1.423,0.546 2.357,1.07 2.799,1.577 0.435,0.515 0.651,1.132 0.651,1.849 0,0.929 -0.401,1.745 -1.2,2.445 -0.799,0.7 -1.962,1.05 -3.488,1.05 -1.297,10e-4 -2.624,-0.198 -3.975,-0.596 z m 15.208,0.597 c -1.194,0 -2.215,-0.233 -3.069,-0.696 -0.855,-0.467 -1.506,-1.153 -1.955,-2.055 -0.449,-0.902 -0.672,-1.907 -0.672,-3.011 0,-1.098 0.22,-2.096 0.661,-2.998 0.443,-0.898 1.094,-1.5853 1.948,-2.0573 0.857,-0.47 1.886,-0.707 3.086,-0.707 1.204,0 2.233,0.237 3.087,0.707 0.854,0.473 1.502,1.1593 1.948,2.0573 0.446,0.903 0.669,1.9 0.669,2.998 0,1.104 -0.223,2.109 -0.672,3.011 -0.45,0.902 -1.101,1.588 -1.955,2.055 -0.853,0.463 -1.879,0.696 -3.076,0.696 z m 0,-1.852 c 0.841,0 1.475,-0.37 1.897,-1.111 0.426,-0.741 0.638,-1.674 0.638,-2.799 0,-1.118 -0.212,-2.051 -0.638,-2.906 -0.421,-0.633 -1.056,-1.004 -1.897,-1.004 -0.836,0 -1.468,0.37 -1.889,1.004 -0.426,0.855 -0.638,1.788 -0.638,2.906 0,1.124 0.212,2.058 0.638,2.799 0.422,0.741 1.053,1.111 1.889,1.111 z m 6.679,1.255 v -2.181 c 1.472,0.617 2.73,0.926 3.773,0.926 0.556,0 0.998,-0.117 1.327,-0.354 0.332,-0.233 0.497,-0.531 0.497,-0.892 0,-0.315 -0.123,-0.58 -0.37,-0.792 -0.25,-0.209 -0.628,-0.415 -1.135,-0.614 l -1.005,-0.402 c -1.039,-0.415 -1.808,-0.874 -2.301,-1.375 -0.497,-0.497 -0.744,-1.142 -0.744,-1.941 0,-0.956 0.374,-1.7453 1.121,-2.3703 0.748,-0.621 1.89,-0.933 3.426,-0.933 0.899,0 1.969,0.13 3.21,0.392 v 2.0983 c -1.194,-0.425 -2.182,-0.638 -2.967,-0.638 -0.614,0 -1.077,0.107 -1.385,0.316 -0.309,0.213 -0.463,0.483 -0.463,0.819 0,0.261 0.099,0.491 0.302,0.693 0.192,0.203 0.549,0.398 1.063,0.593 l 0.864,0.33 c 1.423,0.546 2.357,1.07 2.799,1.577 0.435,0.515 0.651,1.132 0.651,1.849 0,0.929 -0.401,1.745 -1.2,2.445 -0.799,0.7 -1.961,1.05 -3.488,1.05 -1.297,10e-4 -2.624,-0.198 -3.975,-0.596 z"
       fill="#ffffff"
       id="path4"
       style="fill:#ababab;fill-opacity:1" />
    <path
       fill-rule="evenodd"
       clip-rule="evenodd"
       d="m 376.763,61.5877 c -2.676,-9.412 -5.256,-18.4959 -7.835,-27.5809 -0.184,0.03 -0.365,0.0579 -0.545,0.0879 -2.678,9.092 -5.356,18.188 -8.097,27.493 z m -67.969,-6.2849 c 3.089,-1.919 6.255,-3.5441 9.031,-5.6781 6.317,-4.858 5.988,-14.806 -0.483,-18.748 -3.027,-1.84 -6.409,-1.9909 -9.836,-1.7489 -1.679,0.119 -1.596,1.326 -1.598,2.517 -0.018,7.792 -0.058,15.588 -0.068,23.38 -0.013,9.951 -0.004,19.906 -0.01,29.859 0,0.605 -0.079,1.211 -0.141,2.133 h -14.057 v -2.677 c -0.005,-21.063 0.023,-42.1291 -0.062,-63.1911 -0.01,-2.262 0.695,-2.8759 2.887,-2.8809 6.233,-0.016 12.468,-0.4871 18.692,-0.3591 5.024,0.102 9.957,1.191 14.454,3.604 7.692,4.128 11.309,13.032 9.306,21.974 -1.28,5.713 -4.654,9.7621 -9.23,13.0511 -0.613,0.442 -1.221,0.891 -2.013,1.469 4.642,8.47 9.242,16.8619 14.176,25.8659 0.822,-2.343 1.47,-4.0919 2.05,-5.8599 3.924,-11.979 7.842,-23.9611 11.741,-35.9481 2.357,-7.238 4.723,-14.472 6.972,-21.742 0.447,-1.436 1.097,-2.0299 2.569,-2.0119 4.009,0.05 8.02,0.0269 12.029,0.0169 1.302,-0.002 1.961,0.4381 2.41,1.8541 5.414,17.079 10.93,34.1219 16.423,51.1729 1.643,5.1 3.3,10.197 5.072,15.663 -4.958,0 -9.553,0.0661 -14.142,-0.0879 -0.536,-0.017 -1.272,-1.162 -1.506,-1.914 -0.997,-3.227 -1.892,-6.493 -2.717,-9.77 -0.377,-1.486 -1.03,-2.114 -2.689,-2.087 -6.402,0.103 -12.809,0.0819 -19.211,0.0099 -1.505,-0.015 -2.165,0.4691 -2.537,1.9521 -0.842,3.343 -1.94,6.622 -2.844,9.951 -0.374,1.378 -1.007,2.0529 -2.539,2.0379 -7.464,-0.062 -14.927,-0.0049 -22.39,-0.1059 -0.764,-0.009 -1.847,-0.598 -2.226,-1.245 -5.765,-9.802 -11.44,-19.659 -17.128,-29.508 -0.18,-0.316 -0.279,-0.684 -0.385,-0.948 z"
       fill="#ffffff"
       id="path5"
       style="fill:#ababab;fill-opacity:1"
       sodipodi:nodetypes="cccccccccccccccccccccccccccccsccccccccccccc" />
    <path
       fill-rule="evenodd"
       clip-rule="evenodd"
       d="m 253.945,37.1797 h -0.036 c 0,2.464 0.064,4.93 -0.023,7.392 -0.052,1.433 0.514,1.984 1.888,1.843 2.444,-0.251 4.913,-0.357 7.333,-0.764 6.829,-1.156 7.739,-8.638 5.574,-13.107 -1.884,-3.881 -7.619,-5.674 -13.056,-4.672 -1.377,0.254 -1.742,0.857 -1.702,2.145 0.078,2.385 0.022,4.774 0.022,7.163 z m 0.026,19.593 c 0,6.386 -0.028,12.465 0.057,18.541 0.005,0.424 0.809,1.152 1.294,1.204 4.393,0.444 8.811,0.615 12.936,-1.312 3.494,-1.628 5.038,-4.532 4.991,-8.389 -0.045,-3.841 -1.201,-6.926 -4.989,-8.574 -4.492,-1.957 -9.208,-1.352 -14.289,-1.47 z m -14.009,-38.218 c 9.382,-1.404 18.548,-1.816 27.648,-0.164 6.604,1.196 12.439,3.873 14.8,10.944 2.357,7.062 0.712,13.211 -4.613,18.332 -1.072,1.03 -2.519,1.668 -4.009,2.624 1.472,0.526 2.881,0.882 4.158,1.511 8.05,3.956 11.579,11.688 9.593,20.583 -1.68,7.523 -6.705,11.66 -13.731,13.737 -8.882,2.631 -17.948,2.533 -27.049,1.511 -2.211,-0.246 -4.421,-0.515 -6.797,-0.792 z"
       fill="#ffffff"
       id="path6"
       style="fill:#ababab;fill-opacity:1"
       sodipodi:nodetypes="ccccccccccccccccccccccccccc" />
    <path
       fill-rule="evenodd"
       clip-rule="evenodd"
       d="m 233.787,30.4877 h -25.818 v 14.796 h 2.75 c 5.168,0 10.336,0.05 15.502,-0.03 1.614,-0.025 2.193,0.504 2.134,2.122 -0.096,2.608 -0.106,5.229 0.009,7.838 0.076,1.673 -0.596,2.085 -2.158,2.06 -5.165,-0.078 -10.334,-0.027 -15.501,-0.027 h -2.68 v 17.879 h 26.064 v 11.664 h -40.402 v -68.09 c 0.749,-0.055 1.494,-0.155 2.238,-0.155 11.644,-0.01 23.293,0.04 34.939,-0.055 1.959,-0.016 2.898,0.601 2.917,2.51 0.029,3.048 0.006,6.097 0.006,9.488 z"
       fill="#ffffff"
       id="path7"
       style="fill:#ababab;fill-opacity:1"
       sodipodi:nodetypes="cccsscccscccccccscc" />
    <path
       fill-rule="evenodd"
       clip-rule="evenodd"
       d="m 189.261,84.9947 c -13.714,4.504 -26.59,5.205 -38.562,-3.132 -7.72,-5.377 -11.503,-13.186 -12.691,-22.382 -0.272,-2.098 -0.421,-4.18 -0.435,-6.247 v -0.516 c 0.021,-5.103 0.87,-10.113 2.718,-15.053 4.281,-11.44 16.074,-19.884 28.378,-20.323 0.486,-0.018 0.971,-0.03 1.455,-0.036 h 1.608 c 4.688,0.065 9.276,0.701 13.787,2.189 1.766,0.583 2.901,1.246 2.155,3.403 -0.776,2.239 -1.323,4.555 -2.042,6.813 -0.495,1.557 -1.442,1.808 -3.03,1.239 -4.426,-1.591 -9.096,-1.945 -13.685,-1.34 -6.196,0.819 -10.96,4.074 -13.391,10.021 -3.537,8.651 -3.589,17.447 -0.063,26.079 2.88,7.046 8.794,10.22 16.055,10.409 3.996,0.103 8.035,-0.965 12.029,-1.656 1.407,-0.243 2.454,-0.553 2.944,1.291 0.8,3.016 1.784,5.985 2.77,9.241 z"
       fill="#ffffff"
       id="path8"
       style="fill:#ababab;fill-opacity:1"
       sodipodi:nodetypes="cccccccccccccccccccc" />
    <path
       fill-rule="evenodd"
       clip-rule="evenodd"
       d="m 444.266,73.9476 c 0.892,3.371 1.778,6.451 2.464,9.571 0.012,0.052 0.017,0.108 0.017,0.17 v 0.03 c -0.013,0.591 -0.495,1.522 -0.931,1.678 -13.921,4.989 -31.348,4.102 -42.015,-8.061 -4.556,-5.194 -6.93,-11.337 -7.746,-18.14 -1.046,-8.756 -0.3,-17.302 4.054,-25.099 5.947,-10.641 15.243,-16.122 27.42,-16.758 l 0.711,-0.031 h 3.256 c 4.213,0.155 8.337,0.916 12.394,2.275 1.675,0.561 2.49,1.387 1.951,3.19 -0.682,2.273 -1.314,4.562 -2.022,6.825 -0.515,1.631 -1.451,1.899 -3.156,1.345 -4.889,-1.587 -9.942,-2.053 -15.022,-1.035 -6.168,1.233 -10.413,4.964 -12.488,10.812 -2.932,8.255 -2.976,16.632 0.332,24.808 2.855,7.06 8.688,10.329 15.938,10.584 4.064,0.142 8.174,-1.007 12.262,-1.595 0.672,-0.102 1.331,-0.293 2.581,-0.569 z"
       fill="#ffffff"
       id="path9"
       style="fill:#ababab;fill-opacity:1"
       sodipodi:nodetypes="ccsccccccccsccccccccc" />
    <path
       d="M 439.199,12.0597 V 7.28772 h 2.115 c 0.425,0 0.749,0.044 0.97,0.129 0.221,0.085 0.397,0.237 0.529,0.453 0.133,0.217 0.197,0.45599 0.197,0.71799 0,0.339 -0.109,0.624 -0.328,0.856 -0.219,0.233 -0.556,0.37901 -1.014,0.44301 0.168,0.079 0.295,0.15898 0.381,0.23798 0.185,0.168 0.359,0.381 0.522,0.635 l 0.826,1.299 h -0.788 l -0.631,-0.993 c -0.183,-0.287 -0.336,-0.506 -0.454,-0.659 -0.12,-0.152 -0.226,-0.257 -0.321,-0.319 -0.093,-0.06 -0.189,-0.10199 -0.287,-0.12699 -0.072,-0.014 -0.188,-0.022 -0.352,-0.022 h -0.731 v 2.11899 h -0.634 z m 0.633,-2.66599 h 1.355 c 0.289,0 0.513,-0.02999 0.676,-0.08899 0.162,-0.059 0.285,-0.155 0.368,-0.287 0.085,-0.131 0.127,-0.27301 0.127,-0.42701 0,-0.226 -0.081,-0.412 -0.244,-0.558 -0.163,-0.146 -0.421,-0.218 -0.773,-0.218 h -1.509 z"
       fill="#ffffff"
       id="path10" />
    <path
       d="m 441.298,5.11475 c 1.259,0 2.4,0.51099 3.224,1.33499 0.824,0.824 1.335,1.965 1.335,3.224 0,1.25896 -0.511,2.40006 -1.335,3.22406 -0.824,0.824 -1.965,1.3349 -3.224,1.3349 -1.259,0 -2.4,-0.5109 -3.224,-1.3349 -0.824,-0.824 -1.335,-1.9651 -1.335,-3.22406 0,-1.259 0.511,-2.4 1.335,-3.224 0.823,-0.824 1.964,-1.33499 3.224,-1.33499 z m 2.708,1.85099 c -0.693,-0.693 -1.651,-1.12199 -2.708,-1.12199 -1.057,0 -2.015,0.42899 -2.708,1.12199 -0.693,0.693 -1.122,1.651 -1.122,2.708 0,1.05696 0.429,2.01496 1.122,2.70796 0.693,0.693 1.651,1.122 2.708,1.122 1.057,0 2.015,-0.429 2.708,-1.122 0.693,-0.693 1.122,-1.651 1.122,-2.70796 0,-1.057 -0.429,-2.015 -1.122,-2.708 z"
       fill="#ffffff"
       id="path11" />
    <path
       d="m 0.242001,58.9337 c 0.594,-1.433 2.087999,-2.18 3.332999,-1.664 l 86.296,35.735 c 1.244,0.509 1.776,2.094 1.183,3.53 -0.597,1.435 -2.089,2.181 -3.335,1.668 L 1.422,62.4677 C 0.536001,62.1007 0.015,61.1947 0,60.1857 v -0.101 c 0.007,-0.379 0.0850006,-0.77 0.242001,-1.151 z"
       fill="#ffffff"
       id="path12"
       style="fill:#ababab;fill-opacity:1"
       sodipodi:nodetypes="ccccccccc" />
    <path
       d="m 69.2145,101.706 c -1.369,-0.767 -1.999,-2.2543 -1.407,-3.3093 l 41.1135,-73.355 c 0.588,-1.061 2.183,-1.3 3.554,-0.532 1.373,0.771 2.001,2.251 1.41,3.311 L 72.7715,101.179 c -0.593,1.056 -2.189,1.289 -3.557,0.527 z"
       fill="#ffffff"
       id="path13"
       style="fill:#ababab;fill-opacity:1"
       sodipodi:nodetypes="ccccccc" />
    <path
       d="m 14.453,75.0757 c -1.015,-0.633 -1.387,-1.8739 -0.83,-2.7579 L 52.239,10.8707 c 0.555,-0.88895 1.831,-1.09395 2.847,-0.4539 1.017,0.64 1.388,1.874 0.833,2.763 L 17.3,74.6307 c -0.555,0.883 -1.834,1.081 -2.847,0.445 z"
       fill="#ffffff"
       id="path14"
       style="fill:#ababab;fill-opacity:1"
       sodipodi:nodetypes="ccccccc" />
    <path
       d="m 38.866,16.4626 c 0.323,-1.153 1.511,-1.834 2.65,-1.515 l 79.012,22.058 c 1.138,0.315 1.807,1.512 1.486,2.67 -0.325,1.155 -1.514,1.835 -2.653,1.518 l -79.014,-22.06 c -1.139,-0.318 -1.799,-1.515 -1.481,-2.671 z"
       fill="#ffffff"
       id="path15"
       style="fill:#ababab;fill-opacity:1"
       sodipodi:nodetypes="ccccccc" />
    <path
       d="m 121.713,28.6326 c 0.62,1.422 0.482,2.86 -0.314,3.205 l -54.984,24.022 c -0.794,0.349 -1.942,-0.525 -2.565,-1.948 -0.621,-1.425 -0.482,-2.858 0.311,-3.209 l 54.986,-24.022 c 0.796,-0.347 1.944,0.531 2.566,1.952 z"
       fill="#ffffff"
       id="path16"
       style="fill:#ababab;fill-opacity:1"
       sodipodi:nodetypes="ccccccc" />
    <path
       d="m 136.044,68.5367 c 0.465,1.48 -0.475,3.097 -2.101,3.605 L 21.3434,107.453 c -1.624,0.514 -3.32,-0.276 -3.785,-1.759 -0.463,-1.481 0.478,-3.097 2.101,-3.609 L 132.258,66.7747 c 1.627,-0.511 3.32,0.282 3.786,1.762 z"
       fill="#ffffff"
       id="path17"
       style="fill:#ababab;fill-opacity:1"
       sodipodi:nodetypes="ccccccc" />
    <path
       d="m 15.8105,25.3987 c 1.503,-0.387 2.97,0.251 3.268,1.422 l 20.881,81.2023 c 0.303,1.174 -0.671,2.44 -2.175,2.827 -1.506,0.383 -2.969,-0.251 -3.274,-1.423 l -20.88,-81.3153 c -0.301,-1.061 0.68,-2.325 2.18,-2.713 z"
       fill="#ffffff"
       id="path18"
       style="fill:#ababab;fill-opacity:1"
       sodipodi:nodetypes="ccccccc" />
    <path
       d="m 83.7858,0.121684 c 1.488,-0.442 3.04,0.357995 3.463,1.785996 L 116.595,100.82 c 0.427,1.43 -0.437,2.949 -1.926,3.393 -1.49,0.439 -3.041,-0.363 -3.468,-1.789 L 81.8548,3.50767 c -0.425,-1.428 0.446,-2.941986 1.931,-3.385986 z"
       fill="#ffffff"
       id="path19"
       style="fill:#ababab;fill-opacity:1"
       sodipodi:nodetypes="ccccccc" />
    <path
       d="m 100.413,11.6967 c 0.346,1.097 -0.4398,2.328 -1.7528,2.736 L 7.66723,42.9677 c -1.313,0.414 -2.658,-0.144 -3.005,-1.245 -0.342,-1.102 0.441,-2.327 1.754,-2.742 L 97.4092,10.4467 c 1.316,-0.412 2.6578,0.15 3.0038,1.25 z"
       fill="#ffffff"
       id="path20"
       style="fill:#ababab;fill-opacity:1"
       sodipodi:nodetypes="ccccccc" />
    <path
       d="m 86.8054,62.0056 c 0.601,-1.398 0.871,-3.245 -1.06,-3.963 -1.627,-0.607 -2.752,0.496 -3.501,1.895 -0.398,0.746 -0.776,1.504 -1.104,2.284 -1.88,4.456 -4.478,8.422 -8.102,11.644 -3.573,3.18 -7.647,5.305 -12.578,4.551 -7.434,-1.137 -11.209,-6.445 -13.231,-12.967 -3.571,-11.512 -0.152,-21.386 8.176,-29.692 7.2,-7.179 16.42,-8.164 23.97,-0.29 0.523,0.545 1.132,1.113 1.816,1.374 0.623,0.238 1.593,0.341 2.057,0.009 0.505,-0.361 0.826,-1.296 0.816,-1.974 -0.01,-0.715 -0.432,-1.466 -0.802,-2.131 -2.81,-5.059 -10.754,-9.037 -16.54,-8.161 -0.08,0.013 -0.161,0.024 -0.241,0.037 -0.208,0.072 -0.465,0.138 -0.817,0.189 -3.72,0.544 -8.258,2.469 -11.32,4.75 -12.972,9.622 -17.945,31.312 -8.577,45.496 3.407,5.159 11.12,9.4 17.326,8.572 8.339,-1.108 14.523,-5.678 19.149,-12.376 1.934,-2.799 3.207,-6.087 4.563,-9.247 z"
       fill="#ffffff"
       id="path21"
       style="fill:#ababab;fill-opacity:1" />
  </g>
</svg>
