<?xml version="1.0" encoding="UTF-8" standalone="no"?>
<svg
   width="320"
   height="320"
   viewBox="0 0 320 320"
   fill="none"
   version="1.1"
   id="svg6"
   sodipodi:docname="Facto.svg"
   inkscape:version="1.4.2 (f4327f4, 2025-05-13)"
   xmlns:inkscape="http://www.inkscape.org/namespaces/inkscape"
   xmlns:sodipodi="http://sodipodi.sourceforge.net/DTD/sodipodi-0.dtd"
   xmlns="http://www.w3.org/2000/svg"
   xmlns:svg="http://www.w3.org/2000/svg">
  <defs
     id="defs6" />
  <sodipodi:namedview
     id="namedview6"
     pagecolor="#505050"
     bordercolor="#eeeeee"
     borderopacity="1"
     inkscape:showpageshadow="0"
     inkscape:pageopacity="0"
     inkscape:pagecheckerboard="0"
     inkscape:deskcolor="#505050"
     inkscape:zoom="2.3368421"
     inkscape:cx="145.92342"
     inkscape:cy="87.511261"
     inkscape:window-width="1920"
     inkscape:window-height="1017"
     inkscape:window-x="-8"
     inkscape:window-y="-8"
     inkscape:window-maximized="1"
     inkscape:current-layer="g6" />
  <g
     id="g6"
     transform="matrix(0.84210526,0,0,0.84210526,0,105.67158)">
    <path
       d="M 71,76.5304 C 48.5,82.0304 18,102.53 0,129.03 4.09319,112.771 17.727,84.7687 41.8539,67.4693 31.0684,62.0613 20.9321,55.415 15,51.0304 16.2634,48.3244 19.2324,41.9125 24.6174,29.5303 26.1976,25.8968 27.9858,21.7492 30,17.0304 58.8,-2.16964 106.667,-1.30297 127,1.53036 L 118.5,23.5303 C 85.0412,18.3195 55.5468,26.9137 35.6895,37.1297 49.691,45.0853 70.0134,52.5303 82.5,52.5303 Z"
       fill="#d9d9d9"
       id="path1"
       sodipodi:nodetypes="ccccscccccc"
       style="fill:#ababab;fill-opacity:1" />
    <path
       d="m 286,86.2651 v -59.5 c 0,-1.6568 1.343,-3 3,-3 1.657,0 3,1.3432 3,3 v 34 h 36.5 c 1.657,0 3,1.3432 3,3 0,1.6569 -1.343,3 -3,3 H 292 v 19.5 c 0,4.9457 4.858,13 15.5,13 3.296,0 7.565,-1.3805 10.988,-3.8652 3.421,-2.4828 5.512,-5.6854 5.512,-9.1348 v -10 c 0,-1.6568 1.343,-3 3,-3 1.657,0 3,1.3432 3,3 v 10 c 0,6.0506 -3.659,10.848 -7.988,13.9899 -4.327,3.141 -9.808,5.01 -14.512,5.01 -14.158,0 -21.5,-10.9455 -21.5,-18.9999 z"
       fill="#d9d9d9"
       id="path2"
       style="fill:#ababab;fill-opacity:1" />
    <path
       d="m 138,42.7651 v 59.4999 c 0,1.657 1.343,3 3,3 1.657,0 3,-1.343 3,-3 V 68.2651 h 36.5 c 1.657,0 3,-1.3431 3,-3 0,-1.6568 -1.343,-3 -3,-3 H 144 v -19.5 c 0,-4.9456 4.858,-13 15.5,-13 3.296,0 7.565,1.3805 10.988,3.8653 3.421,2.4827 5.512,5.6854 5.512,9.1347 v 10 c 0,1.6569 1.343,3 3,3 1.657,0 3,-1.3431 3,-3 v -10 c 0,-6.0505 -3.659,-10.848 -7.988,-13.9902 -4.327,-3.1402 -9.808,-5.0098 -14.512,-5.0098 -14.158,0 -21.5,10.9457 -21.5,19 z"
       fill="#d9d9d9"
       id="path3"
       sodipodi:nodetypes="sssscssscsscssssscss"
       style="fill:#ababab;fill-opacity:1" />
    <path
       d="m 230,60.2651 c 1.657,0 3,1.3432 3,3 v 38.9999 c 0,1.657 -1.343,3 -3,3 -1.657,0 -3,-1.343 -3,-3 v -5.4003 c -3.852,4.5273 -9.59,7.4003 -16,7.4003 -11.598,0 -21,-9.4019 -21,-20.9999 0,-11.5979 9.402,-21 21,-21 6.41,0 12.148,2.8724 16,7.3995 v -6.3995 c 0,-1.6568 1.343,-3 3,-3 z m -19,8 c -8.284,0 -15,6.7158 -15,15 0,8.2843 6.716,15 15,15 8.284,0 15,-6.7157 15,-15 0,-8.2842 -6.716,-15 -15,-15 z"
       fill="#d9d9d9"
       id="path4"
       style="fill:#ababab;fill-opacity:1" />
    <path
       d="m 374,83.2651 c 0,-8.2842 -6.716,-15 -15,-15 -8.284,0 -15,6.7158 -15,15 0,8.2843 6.716,15 15,15 v 5.9999 c -11.598,0 -21,-9.4019 -21,-20.9999 0,-11.5979 9.402,-21 21,-21 11.598,0 21,9.4021 21,21 0,11.598 -9.402,20.9999 -21,20.9999 v -5.9999 c 8.284,0 15,-6.7157 15,-15 z"
       fill="#d9d9d9"
       id="path5"
       style="fill:#ababab;fill-opacity:1" />
    <path
       d="m 240,83.2651 c 0,-11.5594 9.256,-21 20.758,-21 7.24,2e-4 13.593,3.7469 17.302,9.3962 0.909,1.3849 0.246,3.1865 -1.254,3.8895 -1.5,0.703 -3.264,0.0321 -4.25,-1.2993 -2.701,-3.6468 -6.991,-5.9862 -11.798,-5.9864 -8.112,0 -14.758,6.6773 -14.758,15 0,8.3228 6.646,15 14.758,15 4.945,-1e-4 9.343,-2.4767 12.026,-6.3045 0.951,-1.3567 2.698,-2.0735 4.216,-1.4099 1.518,0.6637 2.228,2.4475 1.355,3.8558 -3.662,5.9065 -10.162,9.8585 -17.597,9.8585 C 249.256,104.265 240,94.8246 240,83.2651 Z"
       fill="#d9d9d9"
       id="path6"
       style="fill:#ababab;fill-opacity:1" />
  </g>
</svg>
