<?xml version="1.0" encoding="UTF-8" standalone="no"?>
<svg
   width="320"
   height="320"
   viewBox="0 0 320 320"
   fill="none"
   version="1.1"
   id="svg9"
   sodipodi:docname="Instivo.svg"
   inkscape:version="1.4.2 (f4327f4, 2025-05-13)"
   xmlns:inkscape="http://www.inkscape.org/namespaces/inkscape"
   xmlns:sodipodi="http://sodipodi.sourceforge.net/DTD/sodipodi-0.dtd"
   xmlns="http://www.w3.org/2000/svg"
   xmlns:svg="http://www.w3.org/2000/svg">
  <sodipodi:namedview
     id="namedview9"
     pagecolor="#505050"
     bordercolor="#eeeeee"
     borderopacity="1"
     inkscape:showpageshadow="0"
     inkscape:pageopacity="0"
     inkscape:pagecheckerboard="0"
     inkscape:deskcolor="#505050"
     inkscape:zoom="2.3617021"
     inkscape:cx="158.36036"
     inkscape:cy="75.157659"
     inkscape:window-width="1920"
     inkscape:window-height="1017"
     inkscape:window-x="-8"
     inkscape:window-y="-8"
     inkscape:window-maximized="1"
     inkscape:current-layer="g10" />
  <g
     id="g10"
     transform="matrix(1.7042126,0,0,1.7042126,-4.6910649e-6,120.80311)">
    <path
       d="m 74.1641,31.7731 c -0.7765,-1.1739 -1.7344,-2.1824 -2.89,-3.0117 -1.1555,-0.8362 -2.3983,-1.553 -3.7261,-2.1571 -1.3278,-0.595 -2.5706,-1.1808 -3.7261,-1.7597 -1.1555,-0.5858 -2.1227,-1.2153 -2.8899,-1.8976 -0.7673,-0.6822 -1.1556,-1.5184 -1.1556,-2.5017 0,-1.0705 0.3975,-1.8975 1.19,-2.4764 0.7926,-0.5789 1.847,-0.8637 3.1748,-0.8637 1.0269,0 2.079,0.0781 3.1495,0.2504 1.0705,0.1722 2.3731,0.4916 3.9168,0.9671 l 1.8631,-5.201 c -1.9665,-0.6822 -3.7009,-1.1302 -5.201,-1.3462 -1.5001,-0.2159 -2.9335,-0.3285 -4.305,-0.3285 -2.0101,0 -3.7261,0.2941 -5.132,0.8707 -1.4151,0.5789 -2.5707,1.3025 -3.4689,2.1824 -0.8959,0.8798 -1.569,1.863 -1.9917,2.9496 -0.4319,1.0958 -0.6386,2.1572 -0.6386,3.184 0,1.7505 0.379,3.2093 1.1555,4.3648 0.7673,1.1555 1.7344,2.1318 2.8807,2.9244 1.1555,0.7925 2.3984,1.4748 3.7262,2.0537 1.3278,0.5789 2.5706,1.1555 3.7261,1.7344 1.1555,0.5789 2.1226,1.2084 2.8899,1.8976 0.7673,0.6822 1.1555,1.5345 1.1555,2.5614 0,1.0268 -0.4066,1.932 -1.2175,2.6992 -0.8201,0.7673 -2.079,1.1555 -3.7951,1.1555 -1.3714,0 -2.8462,-0.1631 -4.4244,-0.4824 -1.5874,-0.3193 -3.3219,-0.889 -5.201,-1.6999 l -1.8631,5.3319 c 2.7338,1.1991 5.1252,1.9503 7.1605,2.2421 2.0354,0.3009 3.8824,0.4479 5.5548,0.4479 1.4587,0 2.8555,-0.232 4.2016,-0.6983 1.3554,-0.4755 2.5546,-1.1463 3.5975,-2.0262 1.0522,-0.8798 1.8884,-1.9159 2.5109,-3.1151 0.6134,-1.1991 0.9235,-2.5017 0.9235,-3.9168 0,-1.7091 -0.379,-3.1564 -1.1463,-4.3394 z"
       fill="#ffffff"
       id="path1"
       style="fill:#ababab;fill-opacity:1" />
    <path
       d="m 100.555,39.191 c -1.1123,0.3446 -2.0634,0.595 -2.8559,0.742 -0.7926,0.147 -1.5277,0.2251 -2.2168,0.2251 -1.5346,0 -2.7682,-0.6639 -3.6917,-1.9848 -0.9143,-1.3278 -1.3807,-3.0806 -1.3807,-5.263 V 0 l -7.4453,2.43278 v 9.59332 l -5.5203,1.4151 v 4.2361 h 5.5203 v 15.0285 c 0,4.2867 1.0177,7.5741 3.0461,9.8598 2.0354,2.295 5.0034,3.4344 8.8949,3.4344 1.0706,0 2.1572,-0.1287 3.2438,-0.3882 1.0957,-0.2596 2.4516,-0.6731 4.0806,-1.2337 l -1.673,-5.1848 z"
       fill="#ffffff"
       id="path2"
       style="fill:#ababab;fill-opacity:1" />
    <path
       d="m 145.209,11.2588 -7.894,24.9687 -0.448,1.8447 -8.479,-26.8134 h -8.281 l 12.458,33.9716 h 8.35 l 12.456,-33.9716 h -8.16 z"
       fill="#ffffff"
       id="path3"
       style="fill:#ababab;fill-opacity:1" />
    <path
       d="M 0,13.5285 V 45.2304 H 7.90481 V 10.866 Z"
       fill="#ffffff"
       id="path4"
       style="fill:#ababab;fill-opacity:1" />
    <path
       d="M 15.8101,0 V 8.20345 L 7.90527,10.866 V 0 Z"
       fill="#a1a1a1"
       id="path5"
       style="fill:#777777;fill-opacity:1" />
    <path
       d="m 100.918,17.6771 h -4.3782 l -4.8679,-5.6512 h 9.2461 z"
       fill="#000000"
       id="path6"
       style="fill:#777777;fill-opacity:1" />
    <path
       d="m 107.534,13.5285 v 31.7019 h 7.905 V 10.866 Z"
       fill="#ffffff"
       id="path7"
       style="fill:#ababab;fill-opacity:1" />
    <path
       d="m 171.198,11.2588 c -9.773,0 -16.573,7.5441 -16.573,17.3396 0,4.7943 1.489,9.46 4.978,12.8806 3.113,3.0324 7.28,4.521 11.595,4.521 9.68,0 16.579,-7.6912 16.572,-17.3993 0.007,-10.0941 -6.593,-17.3396 -16.572,-17.3396 z m 0,28.8993 c -6.15,-0.0161 -8.234,-6.2692 -8.222,-11.5597 -0.014,-5.1321 2.072,-11.4839 8.222,-11.4908 6.158,0.0069 8.242,6.3587 8.221,11.4908 0.021,5.2905 -2.063,11.5436 -8.221,11.5597 z"
       fill="#ffffff"
       id="path8"
       style="fill:#ababab;fill-opacity:1" />
    <path
       d="M 44.5707,45.2305 H 37.4102 V 25.3341 c 0.0046,-3.8249 -3.1013,-6.8825 -6.9009,-6.9009 -3.7997,0 -6.8918,3.0967 -6.8918,6.9009 V 45.2305 H 16.457 V 25.3341 c 0,-7.7532 6.3037,-14.0614 14.0523,-14.0614 7.7486,0 14.0844,6.3059 14.0614,14.0614 z"
       fill="#ffffff"
       id="path9"
       style="fill:#ababab;fill-opacity:1" />
  </g>
  <defs
     id="defs9" />
</svg>
