<?xml version="1.0" encoding="UTF-8" standalone="no"?>
<svg
   width="320"
   height="320"
   viewBox="0 0 320 320"
   fill="none"
   version="1.1"
   id="svg2"
   sodipodi:docname="Lovefit.svg"
   inkscape:version="1.4.2 (f4327f4, 2025-05-13)"
   xmlns:inkscape="http://www.inkscape.org/namespaces/inkscape"
   xmlns:sodipodi="http://sodipodi.sourceforge.net/DTD/sodipodi-0.dtd"
   xmlns="http://www.w3.org/2000/svg"
   xmlns:svg="http://www.w3.org/2000/svg">
  <defs
     id="defs2" />
  <sodipodi:namedview
     id="namedview2"
     pagecolor="#505050"
     bordercolor="#eeeeee"
     borderopacity="1"
     inkscape:showpageshadow="0"
     inkscape:pageopacity="0"
     inkscape:pagecheckerboard="0"
     inkscape:deskcolor="#505050"
     inkscape:zoom="1.6332665"
     inkscape:cx="162.86381"
     inkscape:cy="165.61902"
     inkscape:window-width="1920"
     inkscape:window-height="1017"
     inkscape:window-x="-8"
     inkscape:window-y="-8"
     inkscape:window-maximized="1"
     inkscape:current-layer="g3" />
  <g
     id="g2">
    <g
       id="g3"
       transform="matrix(0.36089462,0,0,0.36089462,81.743555,70)">
      <path
         d="M 53.7862,147.575 C 177.286,79.576 279.79,194.076 241.29,288.576 c -15.5,-70 -71.713,-105 -104.713,-72 -48.2579,48.258 21.54,110.135 77.734,140.404 3.659,1.971 -103.005,2.244 11.846,0.681 63.434,-25.737 117.695,-89.616 111.133,-141.085 -7.213,-56.576 -51.5,-69 -104.5,-61 18,-22 136.993,-62.5004 183,32 55.185,113.352 -19.147,275.15 -197.439,310.9 -1.999,0.4 -4.076,0.391 -6.052,-0.108 C 169.034,487.457 99.8217,442.213 67.5753,408.5 -43.8562,292 5.2894,175.576 53.7862,147.575 Z"
         fill="#d9d9d9"
         id="path1"
         style="fill:#ababab;fill-opacity:1" />
      <path
         d="m 381.79,94.0761 c -84.5,-68.0001 -140.5,-12.5002 -156,38.4999 -43.013,-74.5003 11,-125.49987 46,-131.49987 35,-6 105.5,11.50007 110,92.99997 z"
         fill="#d9d9d9"
         id="path2"
         style="fill:#777777;fill-opacity:1" />
    </g>
  </g>
</svg>
