<?xml version="1.0" encoding="UTF-8" standalone="no"?>
<svg
   width="320"
   height="320"
   viewBox="0 0 320 320"
   fill="none"
   version="1.1"
   id="svg7"
   sodipodi:docname="Meaple.svg"
   inkscape:version="1.4.2 (f4327f4, 2025-05-13)"
   xmlns:inkscape="http://www.inkscape.org/namespaces/inkscape"
   xmlns:sodipodi="http://sodipodi.sourceforge.net/DTD/sodipodi-0.dtd"
   xmlns="http://www.w3.org/2000/svg"
   xmlns:svg="http://www.w3.org/2000/svg">
  <defs
     id="defs7" />
  <sodipodi:namedview
     id="namedview7"
     pagecolor="#505050"
     bordercolor="#eeeeee"
     borderopacity="1"
     inkscape:showpageshadow="0"
     inkscape:pageopacity="0"
     inkscape:pagecheckerboard="0"
     inkscape:deskcolor="#505050"
     inkscape:zoom="2.0580808"
     inkscape:cx="193.86994"
     inkscape:cy="198"
     inkscape:window-width="1920"
     inkscape:window-height="1017"
     inkscape:window-x="-8"
     inkscape:window-y="-8"
     inkscape:window-maximized="1"
     inkscape:current-layer="svg7" />
  <path
     d="m 146.18027,234.62731 12.53349,-23.94835 -11.39208,-20.94673 -20.36462,36.31722 c -1.03999,1.85507 -3.00163,3.00383 -5.12864,3.00383 H 89.258906 v -18.37432 l 7.194575,-7.80468 c 8.146439,-8.83658 8.028109,-22.48135 -0.27047,-31.1746 L 87.78896,162.90573 V 96.947275 c 0,-5.320689 7.089474,-7.14129 9.65306,-2.479063 L 176.05692,237.4327 C 180.31976,245.18373 188.46399,250 197.31013,250 h 34.90091 c 11.36562,0 20.57924,-9.21361 20.57924,-20.57923 v -19.52235 c 0,-4.45835 -1.68823,-8.75132 -4.72514,-12.01534 l -4.52081,-4.85964 c -3.38823,-3.64105 -3.09644,-9.36135 0.6431,-12.64006 l 1.33912,-1.17375 c 4.61636,-4.04676 7.26373,-9.88833 7.26373,-16.02755 V 96.636749 c 0,-26.605763 -35.45141,-35.706891 -48.26713,-12.391274 l -43.23698,78.660255 12.12705,21.31421 50.54922,-89.40879 c 2.23065,-3.945922 8.2486,-2.36257 8.2486,2.170301 v 61.709209 c 0,2.71425 -1.00103,5.33296 -2.812,7.35487 l -7.01091,7.82893 c -6.9036,7.70986 -6.72426,19.43048 0.41306,26.92426 l 6.36854,6.68678 c 1.95209,2.04984 3.04131,4.77218 3.04131,7.6033 v 9.55464 c 0,2.4357 -1.97413,4.40984 -4.40983,4.40984 h -30.37643 c -1.88814,0 -3.62488,-1.03484 -4.52376,-2.69515 L 115.55616,83.516823 C 102.84628,60.044069 67.210897,69.072909 67.211338,95.765733 l 0.0011,67.913187 c 7.4e-5,6.69339 3.116359,13.00608 8.430286,17.07636 4.590125,3.51537 4.848101,10.34033 0.536456,14.19232 l -3.756666,3.35662 c -3.316712,2.96341 -5.212795,7.20053 -5.212795,11.64785 v 20.93864 c 0,10.55348 8.555525,19.10929 19.109293,19.10929 h 34.465008 c 10.66593,0 20.44988,-5.92241 25.39625,-15.37269 z"
     fill="#ebebeb"
     id="path1"
     style="stroke-width:0.734973;fill:#ababab;fill-opacity:1" />
</svg>
