<?xml version="1.0" encoding="UTF-8" standalone="no"?>
<svg
   width="320"
   height="320"
   viewBox="0 0 320 320"
   fill="none"
   version="1.1"
   id="svg11"
   sodipodi:docname="MedMe.svg"
   inkscape:version="1.4.2 (f4327f4, 2025-05-13)"
   xmlns:inkscape="http://www.inkscape.org/namespaces/inkscape"
   xmlns:sodipodi="http://sodipodi.sourceforge.net/DTD/sodipodi-0.dtd"
   xmlns="http://www.w3.org/2000/svg"
   xmlns:svg="http://www.w3.org/2000/svg">
  <defs
     id="defs11" />
  <sodipodi:namedview
     id="namedview11"
     pagecolor="#505050"
     bordercolor="#eeeeee"
     borderopacity="1"
     inkscape:showpageshadow="0"
     inkscape:pageopacity="0"
     inkscape:pagecheckerboard="0"
     inkscape:deskcolor="#505050"
     inkscape:zoom="2.5813954"
     inkscape:cx="158.82883"
     inkscape:cy="120.67117"
     inkscape:window-width="1920"
     inkscape:window-height="1017"
     inkscape:window-x="-8"
     inkscape:window-y="-8"
     inkscape:window-maximized="1"
     inkscape:current-layer="g12" />
  <mask
     id="mask0_139_282"
     maskUnits="userSpaceOnUse"
     x="0"
     y="0"
     width="40"
     height="44">
    <path
       d="M 0,9.76562e-4 H 39.933 V 43.759 H 0 Z"
       fill="#ffffff"
       id="path1" />
  </mask>
  <mask
     id="mask1_139_282"
     maskUnits="userSpaceOnUse"
     x="101"
     y="0"
     width="41"
     height="44">
    <path
       d="m 101.943,9.76562e-4 h 39.932 V 43.759 h -39.932 z"
       fill="#ffffff"
       id="path3" />
  </mask>
  <mask
     id="mask2_139_282"
     maskUnits="userSpaceOnUse"
     x="0"
     y="0"
     width="172"
     height="44">
    <path
       d="M 0,43.759 H 171.57 V 0 H 0 Z"
       fill="#ffffff"
       id="path8" />
  </mask>
  <mask
     id="mask3_139_282"
     maskUnits="userSpaceOnUse"
     x="0"
     y="0"
     width="172"
     height="44">
    <path
       d="M 0,43.759 H 171.57 V 0 H 0 Z"
       fill="#ffffff"
       id="path10" />
  </mask>
  <g
     id="g12"
     transform="matrix(1.8651279,0,0,1.8651279,3.0985e-6,119.19102)">
    <g
       mask="url(#mask0_139_282)"
       id="g2">
      <path
         fill-rule="evenodd"
         clip-rule="evenodd"
         d="M 35.781,0.00299999 39.933,9.99987e-4 V 43.761 H 35.248 V 7.651 L 19.965,24.456 4.731,7.652 V 43.76 H 0 V 0 L 4.217,0.00299999 19.056,16.394 c 0.502,0.55 1.32,0.55 1.82,0 z"
         fill="#fefefe"
         id="path2"
         style="fill:#ababab;fill-opacity:1" />
    </g>
    <g
       mask="url(#mask1_139_282)"
       id="g4">
      <path
         fill-rule="evenodd"
         clip-rule="evenodd"
         d="M 137.723,0.00299999 141.875,9.99987e-4 V 43.761 h -4.682 V 7.651 L 121.909,24.456 106.674,7.652 V 43.76 h -4.731 V 0 L 106.159,0.00299999 120.998,16.394 c 0.5,0.55 1.32,0.55 1.82,0 L 137.725,0.00299999 Z"
         fill="#fefefe"
         id="path4"
         style="fill:#ababab;fill-opacity:1" />
    </g>
    <path
       fill-rule="evenodd"
       clip-rule="evenodd"
       d="m 83.7301,8.75098 c 8.767,0 15.899,7.88202 15.899,17.52402 0,9.643 -7.132,17.484 -15.899,17.484 H 72.7051 V 8.75098 Z"
       fill="#fefefe"
       id="path5"
       style="fill:#ababab;fill-opacity:1" />
    <path
       fill-rule="evenodd"
       clip-rule="evenodd"
       d="m 84.3621,13.301 c 6.492,0 11.769,5.832 11.769,12.97 0,7.135 -5.277,12.941 -11.769,12.941 h -8.159 V 13.301 Z"
       fill="#afafaf"
       id="path6"
       style="fill:#777777;fill-opacity:1" />
    <path
       fill-rule="evenodd"
       clip-rule="evenodd"
       d="m 64.545,39.119 h -6.258 c -6.222,0 -11.314,-6.122 -11.314,-12.763 0,-6.722 5.056,-12.963 11.314,-12.963 h 6.258 c 0.0052,0 0.0104,0.0014 0.015,0.004 h 5.115 V 8.75098 H 58.651 c -8.767,0 -15.899,7.88302 -15.899,17.52402 0,9.643 7.132,17.484 15.899,17.484 h 11.024 v -4.642 h -5.117 z"
       fill="#fefefe"
       id="path7"
       style="fill:#ababab;fill-opacity:1" />
    <g
       mask="url(#mask2_139_282)"
       id="g9">
      <path
         fill-rule="evenodd"
         clip-rule="evenodd"
         d="m 51.3799,28.579 h 18.295 V 23.933 H 51.3799 Z M 166.44,39.119 h -6.257 c -6.222,0 -11.316,-6.122 -11.316,-12.763 0,-6.722 5.058,-12.963 11.316,-12.963 h 6.257 l 0.016,0.004 h 5.115 V 8.75098 h -11.024 c -8.769,0 -15.901,7.88302 -15.901,17.52402 0,9.643 7.132,17.484 15.9,17.484 h 11.025 v -4.642 h -5.117 z"
         fill="#fefefe"
         id="path9"
         style="fill:#ababab;fill-opacity:1" />
    </g>
    <g
       mask="url(#mask3_139_282)"
       id="g11">
      <path
         fill-rule="evenodd"
         clip-rule="evenodd"
         d="M 153.276,28.579 H 171.57 V 23.933 H 153.276 Z"
         fill="#fefefe"
         id="path11"
         style="fill:#ababab;fill-opacity:1" />
    </g>
  </g>
</svg>
