<?xml version="1.0" encoding="UTF-8" standalone="no"?>
<svg
   width="320"
   height="320"
   viewBox="0 0 320 320"
   fill="none"
   version="1.1"
   id="svg9"
   sodipodi:docname="Play9.svg"
   inkscape:version="1.4.2 (f4327f4, 2025-05-13)"
   xmlns:inkscape="http://www.inkscape.org/namespaces/inkscape"
   xmlns:sodipodi="http://sodipodi.sourceforge.net/DTD/sodipodi-0.dtd"
   xmlns="http://www.w3.org/2000/svg"
   xmlns:svg="http://www.w3.org/2000/svg">
  <sodipodi:namedview
     id="namedview9"
     pagecolor="#505050"
     bordercolor="#eeeeee"
     borderopacity="1"
     inkscape:showpageshadow="0"
     inkscape:pageopacity="0"
     inkscape:pagecheckerboard="0"
     inkscape:deskcolor="#505050"
     inkscape:zoom="1.9221698"
     inkscape:cx="116.01472"
     inkscape:cy="66.851534"
     inkscape:window-width="1920"
     inkscape:window-height="1017"
     inkscape:window-x="-8"
     inkscape:window-y="-8"
     inkscape:window-maximized="1"
     inkscape:current-layer="g9" />
  <g
     clip-path="url(#clip0_138_218)"
     id="g9"
     transform="matrix(2.8828829,0,0,2.8828829,0,84.244612)">
    <path
       d="m 22.5132,27.4485 c 0,6.7456 -4.2163,11.0453 -10.0337,11.0453 -2.99203,0 -5.14192,-1.2215 -6.53571,-2.992 v 6.5169 c 0,2.5696 -2.0853,4.6549 -4.65493,4.6549 H 0 v -30.101 h 5.77428 v 2.9921 c 1.3911,-1.8539 3.58403,-3.245 6.66222,-3.245 5.8604,-0.0431 10.0767,4.2997 10.0767,11.1288 z M 16.486,27.365 c 0,-3.6674 -2.1068,-6.1967 -5.3545,-6.1967 -3.2477,0 -5.26843,2.5293 -5.26843,6.1967 0,3.6675 2.02342,6.2829 5.26843,6.2829 3.245,0 5.3545,-2.5724 5.3545,-6.2829 z"
       fill="#ffffff"
       id="path1"
       style="fill:#ababab;fill-opacity:1" />
    <path
       d="m 24.2578,8.97363 h 5.9438 V 33.8278 c 0,2.5696 -2.0853,4.6549 -4.6549,4.6549 h -1.2889 z"
       fill="#ffffff"
       id="path2"
       style="fill:#ababab;fill-opacity:1" />
    <path
       d="m 54.0511,33.1792 v 5.0182 H 51.016 c -3.0782,0 -4.0468,-1.4745 -4.0038,-3.541 -1.5175,2.4028 -3.7105,3.7939 -7.0819,3.7939 -4.6792,0 -8.0533,-2.2333 -8.0533,-6.3662 0,-4.5958 3.4575,-7.2084 9.9502,-7.2084 h 4.2998 v -1.0548 c 0,-1.94 -1.3911,-3.2047 -3.8773,-3.2047 -2.3194,0 -3.8774,1.0548 -4.1303,2.6558 h -5.7339 c 0.4224,-4.2164 4.2998,-6.9986 10.0337,-6.9986 6.0702,0 9.5709,2.6988 9.5709,7.8838 v 7.674 c 0,1.1381 0.4628,1.348 1.3911,1.348 h 0.6753 z m -7.9268,-4.3428 h -4.3428 c -2.4862,0 -3.9204,1.0117 -3.9204,2.8252 0,1.5176 1.2216,2.4863 3.2047,2.4863 3.1185,0 5.0154,-1.94 5.0585,-4.8891 z"
       fill="#ffffff"
       id="path3"
       style="fill:#ababab;fill-opacity:1" />
    <path
       d="m 99.0018,31.729 c -6.6165,0 -11.9979,-5.3626 -11.9979,-11.9548 0,-6.5923 5.3814,-11.95486 11.9979,-11.95486 6.6162,0 11.9982,5.36256 11.9982,11.95486 0,6.5922 -5.382,11.9548 -11.9982,11.9548 z m 0,-18.1677 c -3.4495,0 -6.2532,2.7876 -6.2532,6.2102 0,3.4226 2.8064,6.2102 6.2532,6.2102 3.4472,0 6.2532,-2.7876 6.2532,-6.2102 0,-3.4226 -2.806,-6.2102 -6.2532,-6.2102 z"
       fill="#ffffff"
       id="path4"
       style="fill:#ababab;fill-opacity:1" />
    <path
       d="m 109.351,25.8174 -8.659,13.8222 H 93.9922 L 105.083,21.8701 Z"
       fill="#ffffff"
       id="path5"
       style="fill:#ababab;fill-opacity:1" />
    <path
       d="M 73.0684,52.5553 93.133,21.8757 84.5039,21.873 l -0.0108,0.0135 -1.4772,7.8569 -7.2541,0.0188 -0.1023,0.0915 z"
       fill="#7b7b7b"
       id="path6"
       style="fill:#848484;fill-opacity:1" />
    <path
       d="M 88.6022,0 69.1914,29.7755 75.7621,29.762 84.4935,21.8863 Z"
       fill="#d3d3d3"
       id="path7"
       style="fill:#919191;fill-opacity:1" />
    <path
       d="m 84.4931,21.8867 -8.7314,7.8757 7.2542,-0.0188 z"
       fill="#474747"
       id="path8"
       style="fill:#5e5e5e;fill-opacity:1"
       sodipodi:nodetypes="cccc" />
    <path
       d="m 52.2031,16.5723 h 6.3232 l 5.2684,15.4285 5.142,-15.4285 h 6.3662 l -9.6112,24.7465 c -1.3481,3.584 -2.4459,5.3545 -5.8173,5.3545 h -5.7743 v -5.0155 h 3.288 c 1.5176,0 2.0235,-0.3794 2.6127,-1.8539 L 60.5497,38.3698 52.2031,16.575 Z"
       fill="#ffffff"
       id="path9"
       style="fill:#ababab;fill-opacity:1" />
  </g>
  <defs
     id="defs9">
    <clipPath
       id="clip0_138_218">
      <rect
         width="111"
         height="53"
         fill="#ffffff"
         id="rect9"
         x="0"
         y="0" />
    </clipPath>
  </defs>
</svg>
