<?xml version="1.0" encoding="UTF-8" standalone="no"?>
<svg
   width="320"
   height="320"
   viewBox="0 0 320 320"
   fill="none"
   version="1.1"
   id="svg27"
   sodipodi:docname="Selo H.svg"
   inkscape:version="1.4.2 (f4327f4, 2025-05-13)"
   xmlns:inkscape="http://www.inkscape.org/namespaces/inkscape"
   xmlns:sodipodi="http://sodipodi.sourceforge.net/DTD/sodipodi-0.dtd"
   xmlns="http://www.w3.org/2000/svg"
   xmlns:svg="http://www.w3.org/2000/svg">
  <defs
     id="defs27" />
  <sodipodi:namedview
     id="namedview27"
     pagecolor="#505050"
     bordercolor="#eeeeee"
     borderopacity="1"
     inkscape:showpageshadow="0"
     inkscape:pageopacity="0"
     inkscape:pagecheckerboard="0"
     inkscape:deskcolor="#505050"
     inkscape:zoom="2.5116433"
     inkscape:cx="113.07338"
     inkscape:cy="88.189274"
     inkscape:window-width="1920"
     inkscape:window-height="1017"
     inkscape:window-x="-8"
     inkscape:window-y="-8"
     inkscape:window-maximized="1"
     inkscape:current-layer="g27" />
  <g
     id="g27"
     transform="matrix(2.5656542,0,0,2.5656542,-0.48356495,98.424427)">
    <path
       d="m 122.831,32.433 c -1.15,0 -2.082,-0.937 -2.082,-2.0822 0,-1.1452 0.937,-2.0822 2.082,-2.0822 1.15,0 2.082,0.937 2.082,2.0822 0,1.1452 -0.932,2.0822 -2.082,2.0822 z m 0,-3.8719 c -0.987,0 -1.785,0.8031 -1.785,1.7847 0,0.9866 0.803,1.7848 1.785,1.7848 0.986,0 1.785,-0.8032 1.785,-1.7848 0,-0.9816 -0.799,-1.7847 -1.785,-1.7847 z"
       fill="#ffffff"
       id="path1" />
    <path
       d="m 123.718,31.2977 -0.426,-0.6098 h 0.005 c 0.124,-0.0546 0.218,-0.1339 0.287,-0.233 0.07,-0.1042 0.1,-0.2231 0.1,-0.3669 0,-0.1438 -0.035,-0.2677 -0.1,-0.3718 -0.064,-0.1041 -0.163,-0.1835 -0.287,-0.238 -0.124,-0.0545 -0.268,-0.0843 -0.441,-0.0843 h -0.823 v 1.9038 h 0.441 v -0.5305 h 0.382 c 0.005,0 0.015,0 0.02,0 l 0.366,0.5305 z m -0.58,-1.4526 c 0.07,0.0595 0.099,0.1388 0.099,0.2429 0,0.1041 -0.034,0.1834 -0.099,0.2429 -0.064,0.0595 -0.168,0.0893 -0.302,0.0893 h -0.357 v -0.6644 h 0.357 c 0.134,0 0.233,0.0298 0.302,0.0893 z"
       fill="#ffffff"
       id="path2" />
    <path
       d="m 3.20769,39.8447 c 0.48089,0 0.90229,0.0892 1.26915,0.2776 0.36191,0.1834 0.64946,0.4611 0.85768,0.8378 0.20822,0.3768 0.30737,0.8478 0.30737,1.4179 v 3.4357 H 4.83875 v -3.3563 c 0,-0.6247 -0.15864,-1.0957 -0.46602,-1.413 -0.31233,-0.3173 -0.7486,-0.4809 -1.31377,-0.4809 -0.4214,0 -0.78827,0.0843 -1.1006,0.2529 -0.31233,0.1685 -0.5503,0.4115 -0.71886,0.7337 -0.16856,0.3173 -0.252842,0.704 -0.252842,1.1551 v 3.1085 H 0.188477 v -8.3586 h 0.798181 v 4.0653 L 0.828013,41.2179 C 1.0164,40.7916 1.31386,40.4545 1.73031,40.2115 2.14179,39.9686 2.63756,39.8447 3.20769,39.8447 Z"
       fill="#ffffff"
       id="path3"
       style="fill:#ababab;fill-opacity:1"
       sodipodi:nodetypes="sccsccscsccscccccccs" />
    <path
       d="M 9.46915,45.8731 C 9.02792,45.8731 8.64122,45.7987 8.31402,45.655 7.98681,45.5062 7.73893,45.303 7.56541,45.0452 7.3919,44.7874 7.30762,44.4899 7.30762,44.1478 c 0,-0.3073 0.07436,-0.585 0.21813,-0.8378 0.14873,-0.2528 0.3867,-0.4561 0.71886,-0.6098 0.33217,-0.1537 0.78331,-0.233 1.34848,-0.233 h 2.03761 v 0.5949 H 9.61292 c -0.57013,0 -0.96674,0.1041 -1.18983,0.3024 -0.2231,0.2033 -0.33216,0.4561 -0.33216,0.7536 0,0.3371 0.13385,0.6098 0.39661,0.8131 0.26275,0.2032 0.62962,0.3024 1.10555,0.3024 0.45111,0 0.83781,-0.1041 1.16501,-0.3124 0.3272,-0.2082 0.5652,-0.5056 0.7139,-0.8973 l 0.1785,0.5503 c -0.1487,0.3917 -0.4115,0.704 -0.7833,0.937 -0.3669,0.2429 -0.8329,0.3619 -1.39805,0.3619 z M 11.5067,45.8136 V 44.5048 L 11.472,44.2916 v -2.1863 c 0,-0.5007 -0.1388,-0.8874 -0.4214,-1.1601 -0.2825,-0.2677 -0.699,-0.4065 -1.25424,-0.4065 -0.38174,0 -0.74861,0.0644 -1.09069,0.1933 -0.34207,0.1289 -0.63953,0.2975 -0.8775,0.5057 L 7.46626,40.6428 c 0.30242,-0.2529 0.65937,-0.4512 1.08077,-0.59 0.4214,-0.1388 0.86263,-0.2082 1.32865,-0.2082 0.76352,0 1.35842,0.1884 1.77482,0.5701 0.4165,0.3818 0.6247,0.9569 0.6247,1.7303 v 3.6736 h -0.7685 z"
       fill="#ffffff"
       id="path4"
       style="fill:#ababab;fill-opacity:1"
       sodipodi:nodetypes="scsscssccscscsccccscccscssccssssccc" />
    <path
       d="m 14.4467,47.9999 v -8.1008 h 0.7634 v 1.7798 l -0.0793,1.1849 0.114,1.1948 v 3.9413 z m 3.0539,-2.1268 c -0.5107,0 -0.9717,-0.119 -1.3832,-0.352 -0.4115,-0.238 -0.7437,-0.58 -0.9866,-1.0262 -0.2429,-0.4462 -0.3669,-0.9915 -0.3669,-1.641 0,-0.6495 0.119,-1.1948 0.362,-1.641 0.2429,-0.4462 0.5651,-0.7883 0.9816,-1.0213 0.4115,-0.233 0.8775,-0.347 1.398,-0.347 0.5652,0 1.0659,0.1239 1.5171,0.3768 0.4511,0.2528 0.7981,0.6048 1.051,1.056 0.2528,0.4561 0.3817,0.9766 0.3817,1.5715 0,0.5999 -0.1289,1.1254 -0.3817,1.5766 -0.2529,0.4511 -0.6048,0.8031 -1.051,1.0609 -0.4462,0.2578 -0.9569,0.3867 -1.522,0.3867 z M 17.446,45.1592 c 0.4214,0 0.7982,-0.0942 1.1254,-0.2875 0.3322,-0.1934 0.5949,-0.4611 0.7883,-0.8131 0.1933,-0.352 0.2925,-0.7536 0.2925,-1.2097 0,-0.4561 -0.0992,-0.8626 -0.2925,-1.2047 -0.1934,-0.342 -0.4561,-0.6147 -0.7883,-0.813 -0.3321,-0.1934 -0.704,-0.2925 -1.1254,-0.2925 -0.4214,0 -0.7981,0.0991 -1.1303,0.2925 -0.3322,0.1933 -0.5949,0.466 -0.7883,0.813 -0.1933,0.3471 -0.2875,0.7486 -0.2875,1.2047 0,0.4561 0.0942,0.8627 0.2875,1.2097 0.1934,0.347 0.4561,0.6197 0.7883,0.8131 0.3322,0.1933 0.7089,0.2875 1.1303,0.2875 z"
       fill="#ffffff"
       id="path5"
       style="fill:#ababab;fill-opacity:1"
       sodipodi:nodetypes="ccccccccscssccsccscsssccsccsccsccs" />
    <path
       d="m 22.0864,47.9999 v -8.1008 h 0.7635 v 1.7798 l -0.0793,1.1849 0.114,1.1948 v 3.9413 z m 3.0539,-2.1268 c -0.5106,0 -0.9717,-0.119 -1.3831,-0.352 -0.4115,-0.238 -0.7437,-0.58 -0.9866,-1.0262 -0.2429,-0.4462 -0.3669,-0.9915 -0.3669,-1.641 0,-0.6495 0.119,-1.1948 0.3619,-1.641 0.2429,-0.4462 0.5652,-0.7883 0.9816,-1.0213 0.4115,-0.233 0.8775,-0.347 1.3981,-0.347 0.5652,0 1.0659,0.1239 1.517,0.3768 0.4512,0.2528 0.7982,0.6048 1.0511,1.056 0.2528,0.4561 0.3817,0.9766 0.3817,1.5715 0,0.5999 -0.1289,1.1254 -0.3817,1.5766 -0.2529,0.4511 -0.6049,0.8031 -1.0511,1.0609 -0.4462,0.2578 -0.9617,0.3867 -1.522,0.3867 z m -0.0595,-0.7139 c 0.4214,0 0.7982,-0.0942 1.1254,-0.2875 0.3322,-0.1934 0.595,-0.4611 0.7883,-0.8131 0.1933,-0.352 0.2925,-0.7536 0.2925,-1.2097 0,-0.4561 -0.0992,-0.8626 -0.2925,-1.2047 -0.1933,-0.342 -0.4561,-0.6147 -0.7883,-0.813 -0.3321,-0.1934 -0.704,-0.2925 -1.1254,-0.2925 -0.4214,0 -0.7981,0.0991 -1.1303,0.2925 -0.3322,0.1933 -0.5949,0.466 -0.7883,0.813 -0.1933,0.3471 -0.2875,0.7486 -0.2875,1.2047 0,0.4561 0.0942,0.8627 0.2875,1.2097 0.1934,0.347 0.4561,0.6197 0.7883,0.8131 0.3322,0.1933 0.7089,0.2875 1.1303,0.2875 z"
       fill="#ffffff"
       id="path6"
       style="fill:#ababab;fill-opacity:1"
       sodipodi:nodetypes="ccccccccscssscsccscssscssccsccsccs" />
    <path
       d="m 30.1277,38.5953 c -0.1636,0 -0.3024,-0.0545 -0.4164,-0.1685 -0.114,-0.114 -0.1686,-0.2479 -0.1686,-0.4065 0,-0.1587 0.0546,-0.2926 0.1686,-0.4016 0.114,-0.1091 0.2528,-0.1636 0.4164,-0.1636 0.1636,0 0.3024,0.0545 0.4165,0.1586 0.114,0.1041 0.1685,0.238 0.1685,0.3966 0,0.1636 -0.0545,0.3025 -0.1636,0.4165 -0.109,0.109 -0.2479,0.1685 -0.4214,0.1685 z m -0.4065,7.2184 v -5.9145 h 0.7982 v 5.9145 z"
       fill="#ffffff"
       id="path7"
       style="fill:#ababab;fill-opacity:1"
       sodipodi:nodetypes="ssscscscsccccc" />
    <path
       d="m 35.7694,39.8446 c 0.4809,0 0.9023,0.0892 1.2691,0.2665 0.3619,0.1946 0.6495,0.4722 0.8577,0.849 0.2082,0.3768 0.3074,0.8477 0.3074,1.4179 v 3.4356 h -0.7982 v -3.3563 c 0,-0.6247 -0.1586,-1.0957 -0.466,-1.4129 -0.3124,-0.3173 -0.7486,-0.4809 -1.3138,-0.4809 -0.4214,0 -0.7883,0.0842 -1.1006,0.2528 -0.3123,0.1686 -0.5503,0.4115 -0.7189,0.7337 -0.1685,0.3173 -0.2528,0.704 -0.2528,1.1552 v 3.1084 h -0.7982 v -5.9145 h 0.7635 v 1.6212 l -0.1239,-0.3024 c 0.1884,-0.4264 0.4858,-0.7635 0.9023,-1.0064 0.4114,-0.243 0.9022,-0.3669 1.4724,-0.3669 z"
       fill="#ffffff"
       id="path8"
       style="fill:#ababab;fill-opacity:1"
       sodipodi:nodetypes="scssccscsscscccccccs" />
    <path
       d="m 42.8787,45.8731 c -0.6147,0 -1.1551,-0.1289 -1.6211,-0.3867 -0.4661,-0.2578 -0.828,-0.6147 -1.0907,-1.0708 -0.2628,-0.4561 -0.3966,-0.9767 -0.3966,-1.5617 0,-0.585 0.1239,-1.1056 0.3767,-1.5567 0.2529,-0.4512 0.595,-0.8031 1.0362,-1.0659 0.4412,-0.2578 0.932,-0.3867 1.4823,-0.3867 0.5553,0 1.0511,0.1239 1.4824,0.3768 0.4313,0.2528 0.7734,0.6048 1.0212,1.056 0.2479,0.4561 0.3719,0.9766 0.3719,1.5715 0,0.0397 0,0.0794 -0.005,0.119 -0.0049,0.0397 -0.0049,0.0843 -0.0049,0.1289 h -5.151 v -0.5949 h 4.7196 l -0.3173,0.238 c 0,-0.4264 -0.0941,-0.8081 -0.2776,-1.1452 -0.1834,-0.3322 -0.4363,-0.595 -0.7486,-0.7834 -0.3173,-0.1883 -0.6792,-0.2825 -1.0907,-0.2825 -0.4065,0 -0.7684,0.0942 -1.0907,0.2825 -0.3222,0.1884 -0.575,0.4512 -0.7535,0.7883 -0.1785,0.3371 -0.2727,0.7238 -0.2727,1.1601 v 0.1239 c 0,0.4512 0.0992,0.8478 0.2975,1.1899 0.1983,0.3421 0.4759,0.6098 0.8329,0.7982 0.3569,0.1933 0.7634,0.2875 1.2245,0.2875 0.3619,0 0.6941,-0.0644 1.0064,-0.1933 0.2013,-0.1289 0.58,-0.3223 0.8081,-0.585 l 0.4511,0.5205 c -0.2627,0.3123 -0.5899,0.5553 -0.9865,0.7189 -0.3966,0.1685 -0.8329,0.2528 -1.3039,0.2528 z"
       fill="#ffffff"
       id="path9"
       style="fill:#ababab;fill-opacity:1"
       sodipodi:nodetypes="sccsccsccsccccccccscsssscsccccs" />
    <path
       d="m 48.7588,45.8731 c -0.4859,0 -0.9519,-0.0694 -1.3832,-0.2082 -0.4313,-0.1388 -0.7784,-0.3123 -1.0262,-0.5255 l 0.3619,-0.6296 c 0.2379,0.1784 0.5453,0.3371 0.9221,0.466 0.3768,0.1338 0.7684,0.1983 1.1849,0.1983 0.5651,0 0.9667,-0.0893 1.2146,-0.2628 0.2479,-0.1784 0.3718,-0.4115 0.3718,-0.704 0,-0.2181 -0.0694,-0.3916 -0.2082,-0.5106 -0.1388,-0.1239 -0.3222,-0.2181 -0.5453,-0.2826 -0.2231,-0.0644 -0.476,-0.119 -0.7536,-0.1636 -0.2776,-0.0446 -0.5553,-0.0991 -0.8279,-0.1586 -0.2727,-0.0595 -0.5255,-0.1488 -0.7486,-0.2628 -0.2231,-0.114 -0.4066,-0.2776 -0.5454,-0.4809 -0.1388,-0.2032 -0.2082,-0.471 -0.2082,-0.813 0,-0.3223 0.0892,-0.6148 0.2677,-0.8676 0.1785,-0.2529 0.4462,-0.4561 0.7932,-0.6049 0.3471,-0.1487 0.7734,-0.2181 1.2791,-0.2181 0.3818,0 0.7685,0.0496 1.1502,0.1537 0.3817,0.0991 0.699,0.233 0.9469,0.4016 l -0.347,0.6395 c -0.2628,-0.1785 -0.5454,-0.3074 -0.8428,-0.3867 -0.2975,-0.0793 -0.5999,-0.119 -0.9023,-0.119 -0.5355,0 -0.9271,0.0942 -1.175,0.2776 -0.2528,0.1835 -0.3768,0.4214 -0.3768,0.704 0,0.2231 0.0694,0.4016 0.2082,0.5305 0.1389,0.1289 0.3223,0.2281 0.5503,0.2975 0.2281,0.0694 0.4809,0.1289 0.7536,0.1735 0.2727,0.0446 0.5454,0.0991 0.823,0.1636 0.2726,0.0644 0.5255,0.1487 0.7535,0.2578 0.2281,0.109 0.4115,0.2627 0.5503,0.461 0.1389,0.1983 0.2083,0.4611 0.2083,0.7833 0,0.3471 -0.0942,0.6445 -0.2876,0.8974 -0.1933,0.2528 -0.471,0.4462 -0.8329,0.585 -0.3718,0.1388 -0.813,0.2082 -1.3286,0.2082 z"
       fill="#ffffff"
       id="path10"
       style="fill:#ababab;fill-opacity:1"
       sodipodi:nodetypes="sscccscsccscscsccsccccscsccscccsscs" />
    <path
       d="m 54.2566,45.8731 c -0.4859,0 -0.9519,-0.0694 -1.3832,-0.2082 -0.4313,-0.1388 -0.7783,-0.3123 -1.0262,-0.5255 l 0.3619,-0.6296 c 0.2379,0.1784 0.5453,0.3371 0.9221,0.466 0.3768,0.1338 0.7684,0.1983 1.1849,0.1983 0.5652,0 0.9667,-0.0893 1.2146,-0.2628 0.2479,-0.1784 0.3718,-0.4115 0.3718,-0.704 0,-0.2181 -0.0694,-0.3916 -0.2082,-0.5106 -0.1388,-0.1239 -0.3222,-0.2181 -0.5453,-0.2826 -0.2231,-0.0644 -0.476,-0.119 -0.7536,-0.1636 -0.2776,-0.0446 -0.5553,-0.0991 -0.8279,-0.1586 -0.2727,-0.0595 -0.5255,-0.1488 -0.7486,-0.2628 -0.2231,-0.114 -0.4066,-0.2776 -0.5454,-0.4809 -0.1388,-0.2032 -0.2082,-0.471 -0.2082,-0.813 0,-0.3223 0.0892,-0.6148 0.2677,-0.8676 0.1785,-0.2529 0.4462,-0.4561 0.7932,-0.6049 0.3471,-0.1487 0.7734,-0.2181 1.2791,-0.2181 0.3818,0 0.7685,0.0496 1.1502,0.1537 0.3817,0.0991 0.699,0.233 0.9469,0.4016 l -0.347,0.6395 C 55.8926,40.8609 55.61,40.732 55.3126,40.6527 c -0.2975,-0.0793 -0.5999,-0.119 -0.9023,-0.119 -0.5355,0 -0.9271,0.0942 -1.175,0.2776 -0.2528,0.1835 -0.3768,0.4214 -0.3768,0.704 0,0.2231 0.0694,0.4016 0.2082,0.5305 0.1389,0.1289 0.3223,0.2281 0.5503,0.2975 0.2281,0.0694 0.4809,0.1289 0.7536,0.1735 0.2727,0.0446 0.5454,0.0991 0.823,0.1636 0.2727,0.0644 0.5255,0.1487 0.7535,0.2578 0.2281,0.109 0.4115,0.2627 0.5503,0.461 0.1389,0.1983 0.2083,0.4611 0.2083,0.7833 0,0.3471 -0.0942,0.6445 -0.2876,0.8974 -0.1933,0.2528 -0.471,0.4462 -0.8329,0.585 -0.3718,0.1388 -0.813,0.2082 -1.3286,0.2082 z"
       fill="#ffffff"
       id="path11"
       style="fill:#ababab;fill-opacity:1"
       sodipodi:nodetypes="sscccscsccscscsccsccccscsccscccsscs" />
    <path
       d="m 62.7838,45.8731 c -0.4412,0 -0.8279,-0.0744 -1.1551,-0.2181 -0.3272,-0.1488 -0.5751,-0.352 -0.7486,-0.6098 -0.1735,-0.2578 -0.2578,-0.5553 -0.2578,-0.8974 0,-0.3073 0.0744,-0.585 0.2182,-0.8378 0.1487,-0.2528 0.3866,-0.4561 0.7188,-0.6098 0.3322,-0.1537 0.7833,-0.233 1.3485,-0.233 h 2.0376 v 0.5949 h -2.0178 c -0.5701,0 -0.9667,0.1041 -1.1898,0.3024 -0.2231,0.2033 -0.3322,0.4561 -0.3322,0.7536 0,0.3371 0.1339,0.6098 0.3966,0.8131 0.2628,0.2032 0.6297,0.3024 1.1056,0.3024 0.4511,0 0.8378,-0.1041 1.165,-0.3124 0.3272,-0.2082 0.5652,-0.5056 0.7139,-0.8973 l 0.1785,0.5503 c -0.1487,0.3917 -0.4115,0.704 -0.7833,0.937 -0.3718,0.2429 -0.8378,0.3619 -1.3981,0.3619 z m 2.0376,-0.0595 v -1.3088 l -0.0347,-0.2132 v -2.1863 c 0,-0.5007 -0.1388,-0.8874 -0.4214,-1.1601 -0.2825,-0.2677 -0.699,-0.4065 -1.2542,-0.4065 -0.3818,0 -0.7487,0.0644 -1.0907,0.1933 -0.3471,0.1289 -0.6396,0.2975 -0.8775,0.5057 L 60.781,40.6428 c 0.3024,-0.2529 0.6593,-0.4512 1.0807,-0.59 0.4214,-0.1388 0.8627,-0.2082 1.3287,-0.2082 0.7635,0 1.3584,0.1884 1.7748,0.5701 0.4165,0.3818 0.6247,0.9569 0.6247,1.7303 v 3.6736 h -0.7685 z"
       fill="#ffffff"
       id="path12"
       style="fill:#ababab;fill-opacity:1"
       sodipodi:nodetypes="scsscssccscscsccccscccscscccssssccc" />
    <path
       d="m 70.7804,39.8446 c 0.4809,0 0.9023,0.0892 1.2692,0.2665 0.3619,0.1946 0.6495,0.4722 0.8577,0.849 0.2082,0.3768 0.3073,0.8477 0.3073,1.4179 v 3.4356 h -0.7981 v -3.3563 c 0,-0.6247 -0.1587,-1.0957 -0.4661,-1.4129 -0.3123,-0.3173 -0.7486,-0.4809 -1.3137,-0.4809 -0.4214,0 -0.7883,0.0842 -1.1006,0.2528 -0.3124,0.1686 -0.5503,0.4115 -0.7189,0.7337 -0.1685,0.3173 -0.2528,0.704 -0.2528,1.1552 v 3.1084 h -0.8032 v -5.9145 h 0.7635 v 1.6212 l -0.1239,-0.3024 c 0.1884,-0.4264 0.4858,-0.7635 0.9023,-1.0064 0.4114,-0.243 0.9023,-0.3669 1.4773,-0.3669 z"
       fill="#ffffff"
       id="path13"
       style="fill:#ababab;fill-opacity:1"
       sodipodi:nodetypes="scssccscsccscccccccs" />
    <path
       d="m 77.7262,45.8732 c -0.5652,0 -1.0709,-0.1289 -1.5171,-0.3818 -0.4462,-0.2528 -0.7982,-0.6098 -1.051,-1.0659 -0.2528,-0.4561 -0.3817,-0.9766 -0.3817,-1.5715 0,-0.5999 0.1289,-1.1254 0.3817,-1.5766 0.2528,-0.4511 0.6048,-0.8031 1.051,-1.051 0.4462,-0.2528 0.9519,-0.3768 1.5171,-0.3768 0.5205,0 0.9816,0.119 1.3931,0.3471 0.4115,0.233 0.7337,0.575 0.9816,1.0212 0.2429,0.4462 0.3669,0.9916 0.3669,1.641 0,0.6396 -0.119,1.1849 -0.362,1.6311 -0.2379,0.4511 -0.5651,0.7932 -0.9717,1.0312 -0.4114,0.233 -0.8824,0.352 -1.4079,0.352 z m 0.0595,-0.7139 c 0.4214,0 0.7981,-0.0942 1.1303,-0.2876 0.3322,-0.1933 0.5949,-0.461 0.7883,-0.813 0.1933,-0.352 0.2875,-0.7536 0.2875,-1.2097 0,-0.466 -0.0942,-0.8725 -0.2875,-1.2146 -0.1934,-0.3421 -0.4561,-0.6148 -0.7883,-0.8032 -0.3322,-0.1933 -0.7089,-0.2875 -1.1303,-0.2875 -0.4115,0 -0.7834,0.0942 -1.1155,0.2875 -0.3322,0.1934 -0.5949,0.4611 -0.7883,0.8032 -0.1933,0.347 -0.2925,0.7535 -0.2925,1.2146 0,0.4561 0.0992,0.8626 0.2925,1.2097 0.1934,0.347 0.4561,0.6197 0.7883,0.813 0.3272,0.1934 0.699,0.2876 1.1155,0.2876 z m 2.2309,0.6544 v -1.7798 l 0.0793,-1.1948 -0.114,-1.1948 v -4.1892 h 0.7982 v 8.3586 z"
       fill="#ffffff"
       id="path14"
       style="fill:#ababab;fill-opacity:1"
       sodipodi:nodetypes="scssccsccsccssccsccsccsccscccccccc" />
    <path
       d="m 88.9801,39.8447 c 0.4809,0 0.9023,0.0892 1.2691,0.2776 0.3619,0.1834 0.6495,0.4611 0.8577,0.8378 0.2082,0.3768 0.3074,0.8478 0.3074,1.4179 v 3.4357 h -0.7982 v -3.3563 c 0,-0.6247 -0.1586,-1.0957 -0.466,-1.413 -0.3124,-0.3173 -0.7486,-0.4809 -1.3138,-0.4809 -0.4214,0 -0.7883,0.0843 -1.1006,0.2529 -0.3123,0.1685 -0.5503,0.4115 -0.7189,0.7337 -0.1685,0.3173 -0.2528,0.704 -0.2528,1.1551 v 3.1085 h -0.7982 v -8.3586 h 0.7982 v 4.0653 l -0.1586,-0.3025 c 0.1883,-0.4263 0.4858,-0.7634 0.9023,-1.0064 0.4114,-0.2429 0.9022,-0.3668 1.4724,-0.3668 z"
       fill="#ffffff"
       id="path15"
       style="fill:#ababab;fill-opacity:1"
       sodipodi:nodetypes="sccsccscsccscccccccs" />
    <path
       d="m 96.0894,45.8731 c -0.6147,0 -1.1551,-0.1289 -1.6211,-0.3867 -0.4661,-0.2578 -0.828,-0.6147 -1.0907,-1.0708 -0.2628,-0.4561 -0.3966,-0.9767 -0.3966,-1.5617 0,-0.585 0.1239,-1.1056 0.3767,-1.5567 0.2529,-0.4512 0.595,-0.8031 1.0362,-1.0659 0.4412,-0.2578 0.932,-0.3867 1.4823,-0.3867 0.5553,0 1.051,0.1239 1.4824,0.3768 0.4313,0.2528 0.7734,0.6048 1.0212,1.056 0.2479,0.4561 0.3719,0.9766 0.3719,1.5715 0,0.0397 0,0.0794 -0.005,0.119 -0.005,0.0397 -0.005,0.0843 -0.005,0.1289 h -5.146 v -0.5949 h 4.7197 l -0.3173,0.238 c 0,-0.4264 -0.0942,-0.8081 -0.2776,-1.1452 -0.1835,-0.3322 -0.4363,-0.595 -0.7486,-0.7834 -0.3173,-0.1883 -0.6792,-0.2825 -1.0907,-0.2825 -0.4065,0 -0.7685,0.0942 -1.0907,0.2825 -0.3222,0.1884 -0.5751,0.4512 -0.7536,0.7883 -0.1784,0.3371 -0.2726,0.7238 -0.2726,1.1601 v 0.1239 c 0,0.4512 0.0991,0.8478 0.2974,1.1899 0.1983,0.3421 0.476,0.6098 0.8329,0.7982 0.357,0.1933 0.7635,0.2875 1.2246,0.2875 0.3619,0 0.694,-0.0644 1.0064,-0.1933 0.3123,-0.1289 0.58,-0.3223 0.8081,-0.585 l 0.4511,0.5205 c -0.2628,0.3123 -0.59,0.5553 -0.9866,0.7189 -0.4015,0.1685 -0.8378,0.2528 -1.3088,0.2528 z"
       fill="#ffffff"
       id="path16"
       style="fill:#ababab;fill-opacity:1"
       sodipodi:nodetypes="sccsccsccsscccccccsccssscsccccs" />
    <path
       d="m 101.88,45.8731 c -0.441,0 -0.828,-0.0744 -1.155,-0.2181 -0.328,-0.1488 -0.575,-0.352 -0.7489,-0.6098 -0.1736,-0.2578 -0.2578,-0.5553 -0.2578,-0.8974 0,-0.3073 0.0743,-0.585 0.2181,-0.8378 0.1486,-0.2528 0.3866,-0.4561 0.7186,-0.6098 0.332,-0.1537 0.784,-0.233 1.349,-0.233 h 2.037 v 0.5949 h -2.017 c -0.571,0 -0.967,0.1041 -1.19,0.3024 -0.223,0.2033 -0.332,0.4561 -0.332,0.7536 0,0.3371 0.133,0.6098 0.396,0.8131 0.263,0.2032 0.63,0.3024 1.106,0.3024 0.451,0 0.838,-0.1041 1.165,-0.3124 0.327,-0.2082 0.565,-0.5056 0.714,-0.8973 l 0.178,0.5503 c -0.149,0.3917 -0.411,0.704 -0.783,0.937 -0.372,0.2429 -0.838,0.3619 -1.398,0.3619 z m 2.037,-0.0595 v -1.3088 l -0.034,-0.2132 v -2.1863 c 0,-0.5007 -0.139,-0.8874 -0.422,-1.1601 -0.282,-0.2677 -0.699,-0.4065 -1.254,-0.4065 -0.382,0 -0.749,0.0644 -1.091,0.1933 -0.347,0.1289 -0.639,0.2975 -0.877,0.5057 l -0.3621,-0.5949 c 0.3021,-0.2529 0.6591,-0.4512 1.0811,-0.59 0.421,-0.1388 0.862,-0.2082 1.328,-0.2082 0.764,0 1.359,0.1884 1.775,0.5701 0.417,0.3818 0.625,0.9569 0.625,1.7303 v 3.6736 h -0.769 z"
       fill="#ffffff"
       id="path17"
       style="fill:#ababab;fill-opacity:1"
       sodipodi:nodetypes="sccscssccscscsccccscccscsccccscsccc" />
    <path
       d="m 106.857,45.8137 v -8.3586 h 0.799 v 8.3586 z"
       fill="#ffffff"
       id="path18"
       style="fill:#ababab;fill-opacity:1"
       sodipodi:nodetypes="ccccc" />
    <path
       d="m 108.984,40.5635 v -0.6643 h 3.659 v 0.6643 z m 2.796,5.3097 c -0.555,0 -0.982,-0.1488 -1.284,-0.4512 -0.302,-0.3024 -0.451,-0.7238 -0.451,-1.2741 v -5.5526 h 0.798 v 5.508 c 0,0.347 0.089,0.6098 0.263,0.7982 0.178,0.1884 0.431,0.2826 0.758,0.2826 0.352,0 0.645,-0.1042 0.878,-0.3025 l 0.282,0.5751 c -0.158,0.1438 -0.347,0.2479 -0.57,0.3173 -0.223,0.0694 -0.441,0.0992 -0.674,0.0992 z"
       fill="#ffffff"
       id="path19"
       style="fill:#ababab;fill-opacity:1"
       sodipodi:nodetypes="cccccsssccscsccss" />
    <path
       d="m 117.501,39.8447 c 0.481,0 0.902,0.0892 1.269,0.2776 0.362,0.1834 0.65,0.4611 0.858,0.8378 0.208,0.3768 0.307,0.8478 0.307,1.4179 v 3.4357 h -0.798 v -3.3563 c 0,-0.6247 -0.159,-1.0957 -0.466,-1.413 -0.312,-0.3173 -0.749,-0.4809 -1.314,-0.4809 -0.421,0 -0.788,0.0843 -1.1,0.2529 -0.313,0.1685 -0.551,0.4115 -0.719,0.7337 -0.169,0.3173 -0.253,0.704 -0.253,1.1551 v 3.1085 h -0.798 v -8.3586 h 0.798 v 4.0653 l -0.159,-0.3025 c 0.189,-0.4263 0.486,-0.7634 0.903,-1.0064 0.406,-0.2429 0.902,-0.3668 1.472,-0.3668 z"
       fill="#ffffff"
       id="path20"
       style="fill:#ababab;fill-opacity:1"
       sodipodi:nodetypes="sccsccscsccscccccccs" />
    <path
       d="m 69.7444,8.69568 c -6.7871,0 -12.2901,5.50302 -12.2901,12.29002 0,6.787 5.503,12.29 12.2901,12.29 6.787,0 12.29,-5.503 12.29,-12.29 0,-6.787 -5.503,-12.29002 -12.29,-12.29002 z m 0,18.97792 c -3.6935,0 -6.6879,-2.9945 -6.6879,-6.6879 0,-3.6935 2.9944,-6.6879 6.6879,-6.6879 3.6934,0 6.6878,2.9944 6.6878,6.6879 0,3.6934 -2.9944,6.6879 -6.6878,6.6879 z"
       fill="#ffffff"
       id="path21"
       style="fill:#ababab;fill-opacity:1"
       sodipodi:nodetypes="ssssssssss" />
    <path
       d="m 43.1217,22.5572 c 0.4462,0 0.8279,-0.3371 0.8626,-0.7783 0.0198,-0.2628 0.0298,-0.5255 0.0298,-0.7932 0,-7.2481 -6.2764,-13.02876 -13.6881,-12.21074 -5.6269,0.6197 -10.1929,5.18574 -10.8126,10.81264 -0.8181,7.4117 4.9626,13.6881 12.2106,13.6881 4.8486,0 9.0279,-2.811 11.0259,-6.8912 0.2825,-0.5751 -0.1488,-1.2443 -0.7883,-1.2443 h -4.6057 c -0.2528,0 -0.4858,0.114 -0.6494,0.3024 -1.2246,1.3683 -2.9994,2.2309 -4.9825,2.2309 -3.153,0 -5.7855,-2.1813 -6.4945,-5.1163 z M 31.724,14.2978 c 2.5483,0 4.7594,1.4228 5.8897,3.5199 H 25.8344 c 1.1303,-2.0971 3.3464,-3.5199 5.8896,-3.5199 z"
       fill="#ffffff"
       id="path22"
       style="fill:#ababab;fill-opacity:1"
       sodipodi:nodetypes="scsccscsscscssccs" />
    <path
       d="M 50.7665,20.9857 V 1.56163 c 0,-0.48089 -0.3917,-0.872543 -0.8726,-0.872543 h -3.857 c -0.4809,0 -0.8726,0.391653 -0.8726,0.872543 V 20.9857 c 0,6.6036 5.2055,11.9876 11.7348,12.2752 0.3024,0.0148 0.5552,-0.238 0.5552,-0.5404 v -4.5412 c 0,-0.2876 -0.228,-0.5057 -0.5106,-0.5305 -3.4555,-0.2578 -6.1772,-3.1432 -6.1772,-6.6631 z"
       fill="#ffffff"
       id="path23"
       style="fill:#ababab;fill-opacity:1"
       sodipodi:nodetypes="sssssscsscs" />
    <path
       d="M 12.5379,19.4636 C 10.183,18.6902 7.29273,18.1449 6.16734,17.0641 6.07315,16.9749 6.00374,16.8708 5.9492,16.7518 5.81535,16.4494 5.73603,16.1073 5.73603,15.7107 c 0,-0.0347 -0.00496,-0.0595 -0.00496,-0.0942 0.23797,-1.4625 1.61619,-2.2111 3.30179,-2.2111 1.58644,0 3.06384,0.8329 3.45054,2.2111 0.1289,0.4511 0.5751,0.7337 1.0411,0.7337 h 3.5298 c 0.6892,0 1.1998,-0.6346 1.056,-1.3088 C 17.6443,12.8551 15.8992,8.70057 9.33528,8.70057 2.0277,8.69561 0.416468,13.683 0.421426,16.0577 c 0.004957,1.6311 0.228052,4.8833 5.369134,6.4499 2.35488,0.7734 5.24524,1.3188 6.37054,2.3995 0.0942,0.0893 0.1636,0.1934 0.2182,0.3124 0.1338,0.3024 0.2132,0.6445 0.2132,1.0411 0,0.0347 0.0049,0.0595 0.0049,0.0942 -0.238,1.4625 -1.6162,2.2111 -3.30178,2.2111 -1.58645,0 -3.06383,-0.8329 -3.45053,-2.2111 C 5.71619,25.9036 5.27001,25.621 4.80399,25.621 H 1.26918 c -0.68911,0 -1.1997474,0.6346 -1.055976,1.3089 0.466019,2.1863 2.211116,6.3408 8.775036,6.3408 7.31746,0 8.92876,-4.9874 8.92376,-7.3621 -0.0099,-1.6261 -0.228,-4.8784 -5.3741,-6.445 z"
       fill="#ffffff"
       id="path24"
       style="fill:#ababab;fill-opacity:1"
       sodipodi:nodetypes="cccscscssccccccscscsscscc" />
    <path
       d="M 119.37,8.69077 V 1.11547 C 119.37,0.500723 118.924,0 118.369,0 h -8.101 c -0.555,0 -1.001,0.500723 -1.001,1.11547 V 9.717 c 0,1.755 -1.279,3.1779 -2.856,3.1779 H 99.0688 L 88.8809,24.233 v 8.4776 c 0,0.6147 0.4461,1.1155 1.0014,1.1155 h 8.1553 c 0.5553,0 1.0015,-0.5008 1.0015,-1.1155 v -9.598 c 0,-1.755 1.2789,-3.1779 2.8559,-3.1779 h 7.367 z"
       fill="#ffffff"
       id="path25"
       style="fill:#ababab;fill-opacity:1"
       sodipodi:nodetypes="cssssssccsssssscc" />
    <path
       d="m 109.271,21.9029 v 10.8127 c 0,0.6147 0.447,1.1154 1.002,1.1154 h 8.101 c 0.555,0 1.001,-0.5007 1.001,-1.1154 V 10.6639 Z"
       fill="#ffffff"
       id="path26"
       style="fill:#ababab;fill-opacity:1"
       sodipodi:nodetypes="csssscc" />
    <path
       d="M 99.0391,10.6342 V 1.11547 C 99.0391,0.500723 98.5929,0 98.0376,0 H 89.8823 C 89.327,0 88.8809,0.500723 88.8809,1.11547 V 21.9376 Z"
       fill="#ffffff"
       id="path27"
       style="fill:#ababab;fill-opacity:1"
       sodipodi:nodetypes="csssscc" />
  </g>
</svg>
