<?xml version="1.0" encoding="UTF-8" standalone="no"?>
<svg
   width="320"
   height="320"
   viewBox="0 0 320 320"
   fill="none"
   version="1.1"
   id="svg11"
   sodipodi:docname="Vega I.T..svg"
   inkscape:version="1.4.2 (f4327f4, 2025-05-13)"
   xmlns:inkscape="http://www.inkscape.org/namespaces/inkscape"
   xmlns:sodipodi="http://sodipodi.sourceforge.net/DTD/sodipodi-0.dtd"
   xmlns="http://www.w3.org/2000/svg"
   xmlns:svg="http://www.w3.org/2000/svg">
  <defs
     id="defs11" />
  <sodipodi:namedview
     id="namedview11"
     pagecolor="#505050"
     bordercolor="#eeeeee"
     borderopacity="1"
     inkscape:showpageshadow="0"
     inkscape:pageopacity="0"
     inkscape:pagecheckerboard="0"
     inkscape:deskcolor="#505050"
     inkscape:zoom="2.2133583"
     inkscape:cx="217.31682"
     inkscape:cy="200.82605"
     inkscape:window-width="1920"
     inkscape:window-height="1017"
     inkscape:window-x="-8"
     inkscape:window-y="-8"
     inkscape:window-maximized="1"
     inkscape:current-layer="g11" />
  <mask
     id="mask0_138_259"
     maskUnits="userSpaceOnUse"
     x="0"
     y="0"
     width="197"
     height="195">
    <path
       d="M 0,24.8036 170.198,4.66412e-5 196.777,169.923 26.5788,194.726 Z M 45.0914,45.1003 C 54.0441,46.8219 83.5539,44.2899 77.0116,161.19 124.723,138.736 164.747,98.1273 148.046,51.2982 135.548,16.2516 120.361,27.2287 109.481,30.9827 c 47.76,8.6642 43.386,83.8443 -28.5791,125.1643 0,0 63.0131,-102.4384 -19.7991,-117.2447 -82.8116,-14.8062 -14.9784,9.9856 -14.9784,9.9856 z"
       fill="#ffffff"
       id="path1" />
  </mask>
  <mask
     id="mask1_138_259"
     maskUnits="userSpaceOnUse"
     x="376"
     y="53"
     width="116"
     height="91">
    <path
       d="M 376.206,53.5769 H 491.304 V 143.022 H 376.206 Z m 47.477,50.5761 h 20.832 L 433.669,84.0096 Z"
       fill="#ffffff"
       id="path5" />
  </mask>
  <g
     id="g11"
     transform="matrix(0.55267329,0,0,0.55267329,-17.234611,106.18991)">
    <g
       mask="url(#mask0_138_259)"
       id="g2">
      <path
         d="m 164.787,87.6867 c 2.75,17.5813 -1.608,35.4623 -12.116,49.7083 -10.507,14.247 -26.304,23.693 -43.914,26.259 C 91.147,166.22 73.1657,161.697 58.7689,151.08 44.3721,140.463 34.7391,124.621 31.9891,107.04 29.2391,89.4584 33.5973,71.5776 44.105,57.3309 54.6126,43.0843 70.409,33.6389 88.0192,31.0725 c 8.7196,-1.2708 17.6218,-0.8144 26.1988,1.343 8.577,2.1574 16.661,5.9736 23.789,11.2307 7.129,5.2571 13.163,11.8522 17.758,19.4087 4.595,7.5564 7.661,15.9263 9.022,24.6318 z"
         fill="#ffffff"
         id="path2"
         sodipodi:nodetypes="ccsscscscsc"
         style="fill:#ababab;fill-opacity:1" />
    </g>
    <path
       d="m 209.165,72.8189 h -18.422 l 25.997,51.4771 h 23.931 l 25.825,-51.6493 h -18.938 l -18.766,40.1143 z"
       fill="#ffffff"
       id="path3"
       style="fill:#ababab;fill-opacity:1"
       sodipodi:nodetypes="cccccccc" />
    <path
       d="M 323.655,84.6983 V 72.8188 h -55.954 v 51.4772 h 55.61 v -12.74 H 282.68 v -7.575 h 38.737 V 91.9292 h -38.221 v -7.0588 z"
       fill="#ffffff"
       id="path4"
       style="fill:#ababab;fill-opacity:1"
       sodipodi:nodetypes="ccccccccccccc" />
    <g
       mask="url(#mask1_138_259)"
       id="g6">
      <path
         d="m 395.104,124.124 h 17.733 l 5.165,-8.436 h 32.022 l 4.649,8.264 h 17.733 L 446.065,72.4745 h -25.137 z"
         fill="#ffffff"
         id="path6"
         style="fill:#ababab;fill-opacity:1"
         sodipodi:nodetypes="ccccccccc" />
    </g>
    <path
       d="m 492.86,72.5542 h 16.8 v 51.8608 h -17.044 z"
       fill="#ffffff"
       id="path7"
       style="fill:#ababab;fill-opacity:1"
       sodipodi:nodetypes="ccccc" />
    <path
       d="m 517.085,109.685 v 14.73 h 17.409 v -14.852 z"
       fill="#ffffff"
       id="path8"
       style="fill:#ababab;fill-opacity:1"
       sodipodi:nodetypes="ccccc" />
    <path
       d="m 592.779,109.954 v 14.73 h 17.409 v -14.852 z"
       fill="#ffffff"
       id="path9"
       style="fill:#ababab;fill-opacity:1"
       sodipodi:nodetypes="ccccc" />
    <path
       d="m 537.537,72.9194 v 13.6348 h 22.157 v 38.4698 h 16.922 V 86.189 h 22.156 V 72.6759 Z"
       fill="#ffffff"
       id="path10"
       style="fill:#ababab;fill-opacity:1"
       sodipodi:nodetypes="ccccccccc" />
    <path
       d="m 359.311,94.6499 v 11.4431 h 19.539 v 2.027 c 0,0.9 -0.357,1.762 -0.993,2.398 -0.636,0.636 -1.498,0.993 -2.397,0.993 h -27.556 c -1.107,0 -2.169,-0.44 -2.952,-1.223 -0.784,-0.783 -1.224,-1.845 -1.224,-2.953 V 90.9795 c 0,-1.432 0.569,-2.8053 1.582,-3.8178 1.012,-1.0125 2.386,-1.5814 3.818,-1.5814 h 26.101 c 0.799,0 1.565,0.3175 2.13,0.8825 0.565,0.5651 0.883,1.3314 0.883,2.1306 v 2.7695 h 16.556 V 86.049 c 0,-1.7961 -0.354,-3.5747 -1.041,-5.2341 -0.687,-1.6594 -1.695,-3.1672 -2.965,-4.4373 -1.27,-1.2701 -2.778,-2.2775 -4.437,-2.9649 -1.66,-0.6873 -3.438,-1.0411 -5.234,-1.0411 h -39.566 c -1.697,0 -3.377,0.3342 -4.945,0.9837 -1.568,0.6494 -2.992,1.6013 -4.192,2.8012 -1.2,1.2 -2.152,2.6246 -2.802,4.1924 -0.649,1.5679 -0.983,3.2483 -0.983,4.9453 V 110.75 c 0,1.779 0.35,3.54 1.031,5.183 0.68,1.643 1.678,3.136 2.936,4.394 1.257,1.257 2.75,2.255 4.393,2.936 1.644,0.68 3.405,1.03 5.183,1.03 h 40.156 c 1.621,0 3.226,-0.319 4.724,-0.939 1.498,-0.621 2.859,-1.53 4.005,-2.676 1.146,-1.146 2.055,-2.507 2.676,-4.005 0.62,-1.498 0.939,-3.103 0.939,-4.724 v -17.36 z"
       fill="#ffffff"
       id="path11"
       style="fill:#ababab;fill-opacity:1"
       sodipodi:nodetypes="cccsssscsscssssccssscsscscsscscsscscscc" />
  </g>
</svg>
