<svg xmlns="http://www.w3.org/2000/svg" viewBox="0 0 893.81 89.71" role="img" aria-label="Vellumwire wordmark">
  <title>Vellumwire</title>
  <!-- V -->
  <polygon fill="currentColor" points="72.26 0 49.38 57.07 26.51 0 0 0 35.87 89.47 36.4 89.47 62.37 89.47 62.9 89.47 98.77 0 72.26 0"/>
  <!-- e (first) -->
  <path fill="currentColor" d="M143.74,0c-24.83,0-44.97,20.03-44.97,44.74s20.13,44.74,44.97,44.74c18.07,0,33.65-10.61,40.79-25.91h-29.18c-3.38,2.07-7.35,3.26-11.61,3.26-12.26,0-22.2-9.89-22.2-22.08s9.94-22.08,22.2-22.08c9.02,0,16.78,5.36,20.25,13.05h-26.42v17.97h50.23c.59-2.89.9-5.87.9-8.93,0-24.71-20.13-44.74-44.97-44.74Z"/>
  <!-- l l -->
  <rect fill="currentColor" x="206.95" y="0" width="26.79" height="89.71"/>
  <rect fill="currentColor" x="252.01" y="0" width="26.89" height="89.71"/>
  <!-- u -->
  <path fill="currentColor" d="M323.91,67c3.45,0,6.46.06,11.29.06,8.77,0,15.61-9.89,15.61-22.08h.08V0h26.77v45.21h.04c0,24.71-13.56,44.74-38.27,44.74h-42.5V0h26.77l.2,67Z"/>
  <!-- m -->
  <path fill="currentColor" d="M396.08,0v89.47h26.77v-49.8c0-4.91-.02-10.61-.02-16.99,4.15,0,4.75-.03,11.52-.03,12.2,0,12.08,9.89,12.08,22.08h.08v44.74h26.83v-49.8c0-4.57-.02-13.1-.02-16.96,3.97,0,6.28-.06,11.51-.06,12.2,0,12.08,9.89,12.08,22.08h.08v44.74h26.77v-44.74h.04c0-24.71-10.03-44.74-34.74-44.74h-92.99Z"/>
  <!-- w i r e -->
  <path fill="currentColor" d="M543.25,89.47V0h26.77v49.8c0,4.91-.02,10.61-.02,16.99,4.15,0,4.75.03,11.52.03,12.2,0,12.08-9.89,12.08-22.08h.08V0h26.83v49.8c0,4.57-.02,13.1-.02,16.96,3.97,0,6.28.06,11.51.06,12.2,0,12.08-9.89,12.08-22.08h.08V0h70.04v22.4h-43.26v22.34h.04c0,24.71-10.03,44.74-34.74,44.74h-92.99Z"/>
  <!-- i dot -->
  <rect fill="currentColor" x="687.33" y="44.74" width="26.87" height="44.74"/>
  <!-- r -->
  <path fill="currentColor" d="M758.82,14.67V0h-26.87v89.7h26.87v-44.74c0-12.2,23.42-22.38,35.62-22.38V0c-13.19,0-26.28,5.8-35.62,14.96Z"/>
  <!-- e (last) -->
  <path fill="currentColor" d="M848.85,0c-24.83,0-44.97,20.03-44.97,44.74s20.13,44.74,44.97,44.74c18.07,0,33.65-10.61,40.79-25.91h-29.18c-3.38,2.07-7.35,3.26-11.61,3.26-12.26,0-22.2-9.89-22.2-22.08s9.94-22.08,22.2-22.08c9.02,0,16.78,5.36,20.25,13.05h-26.42v17.97h50.23c.59-2.89.9-5.87.9-8.93,0-24.71-20.13-44.74-44.97-44.74Z"/>
</svg>
